<?xml version="1.0" encoding="UTF-8" standalone="no"?>
<!-- Created with Inkscape (http://www.inkscape.org/) -->

<svg
   width="33.08791mm"
   height="19.612122mm"
   viewBox="0 0 33.08791 19.612122"
   version="1.1"
   id="svg1"
   xmlns="http://www.w3.org/2000/svg"
   xmlns:svg="http://www.w3.org/2000/svg">
  <defs
     id="defs1" />
  <path
     d="m 18.728655,0.61373638 c -0.31938,-8e-5 -0.63745,0.0443 -0.94596,0.13196 -0.30857,0.0878 -0.60501,0.21814 -0.88165,0.38772002 -0.27661,0.16945 -0.53114,0.37669 -0.75701,0.61636 -0.009,0.0129 -0.0188,0.0258 -0.028,0.0389 -0.014,-0.005 -0.0281,-0.0101 -0.0422,-0.015 -0.1083,-0.0327 -0.21798,-0.06 -0.32866,-0.082 -0.11062,-0.0219 -0.22215,-0.0384 -0.33419,-0.0493 -0.11212,-0.0111 -0.22468,-0.0166 -0.33728,-0.0167 -0.31939,3e-5 -0.63746,0.0445 -0.94596,0.13229 -0.30855,0.0877 -0.60499,0.21793 -0.88164,0.38739 -0.27663,0.16955 -0.53117,0.3769 -0.75702,0.61669 -0.22577,0.23964 -0.42102,0.5097 -0.58068,0.80319 -0.15976,0.29364 -0.2861,0.60732 -0.36528,0.93582 -0.009,0.0361 0.0143,0.13298 -0.0139,0.11073 -0.14704,-0.11632 -0.2404,-0.24241 -0.37112,-0.34722 -0.0898,-0.072 -0.18278,-0.1396 -0.2785,-0.20251 -0.0957,-0.0629 -0.19406,-0.12114 -0.2948,-0.17443 -0.20028,-0.10579 -0.411,-0.19265 -0.6289999,-0.25837 -0.17174,-0.052 -0.53187,-0.14815 -1.00012,-0.14828 -0.31939,3e-5 -0.63746,0.0445 -0.94596,0.13228 -0.30855,0.0877 -0.605,0.21794 -0.88165,0.38739 -0.27652,0.16958 -0.53095,0.37694 -0.75671,0.61669 -0.2259,0.23973 -0.42125,0.50991 -0.58099,0.80353 -0.15963,0.29354 -0.28234,0.60809 -0.36497,0.93548 -10e-4,0.009 -0.002,0.0174 -0.003,0.0261 -0.0509,-0.0194 -0.1022,-0.0376 -0.15386,-0.0546 -0.1083,-0.0327 -0.21798,-0.06 -0.32866,-0.082 -0.11071,-0.022 -0.22234,-0.0386 -0.3345,-0.0497 -0.11211,-0.0111 -0.22467,-0.0166 -0.33727,-0.0167 -0.31939,3e-5 -0.63746,0.0445 -0.94596,0.13229 -0.30846,0.0878 -0.6048,0.21817 -0.88134,0.38772 -0.27661,0.16945 -0.53115,0.3767 -0.75701,0.61636 -0.2258,0.23974 -0.42105,0.50992 -0.58069,0.80352 -0.15972999,0.29353 -0.28254999,0.60808 -0.36527999,0.93549 -0.0826,0.32747 -0.12439,0.66508 -0.12432,1.0040796 -7e-5,0.339 0.0417,0.67661 0.12432,1.00408 0.0827,0.32752 0.20552,0.64218 0.36527999,0.93581 0.15966,0.29349 0.35491,0.56356 0.58069,0.8032 0.22584,0.23978 0.48038,0.44714 0.75701,0.61669 0.27656,0.16943 0.5729,0.29969 0.88134,0.38739 0.3085,0.0878 0.62657,0.13225 0.94596,0.13229 0.31939,-4e-5 0.63746,-0.0445 0.94596,-0.13229 0.17406,-0.0607 0.3436,-0.13513 0.50714,-0.22277 0.006,0.0596 0.0135,0.11909 0.0222,0.17835 0.0827,0.32754 0.20551,0.64216 0.36527,0.93581 0.15966,0.29362 0.35488,0.56377 0.58069,0.80352 0.22588,0.23968 0.48039,0.4469 0.75701,0.61637 0.27666,0.16958 0.57307,0.29993 0.88165,0.38771 0.30853,0.0877 0.62657,0.13204 0.94596,0.13196 0.3194,8e-5 0.63743,-0.0443 0.9459599,-0.13196 0.29703,-0.0862 0.58261,-0.21183 0.84995,-0.374 0.0824,0.32457 0.20412,0.6364 0.3622,0.92765 0.15965,0.29362 0.35488,0.56377 0.58069,0.80353 0.22587,0.23967 0.48039,0.4469 0.75701,0.61636 0.27665,0.16958 0.57307,0.29993 0.88165,0.38771 0.30851,0.0878 0.62655,0.13226 0.94596,0.13229 0.3193,-6e-5 0.63724,-0.0445 0.94565,-0.13229 0.30858,-0.0878 0.605,-0.21813 0.88165,-0.38771 0.27662,-0.16946 0.53113,-0.37669 0.75701,-0.61636 0.22581,-0.23976 0.42104,-0.50991 0.58069,-0.80353 0.15974,-0.29355 0.28255,-0.60806 0.36527,-0.93549 0.006,-0.0439 0.0116,-0.0879 0.0163,-0.13196 0.18988,0.10514 0.38811,0.19237 0.59238,0.26066 0.30852,0.0878 0.62656,0.13226 0.94596,0.13229 0.31941,-3e-5 0.63745,-0.0445 0.94597,-0.13229 0.30847,-0.0878 0.60478,-0.21816 0.88133,-0.38772 0.1491,-0.10394 0.29083,-0.21934 0.42405,-0.34525 0.0538,0.0805 0.11046,0.15889 0.16987,0.23485 0.22585,0.23979 0.48038,0.44713 0.75702,0.61669 0.27656,0.16944 0.57288,0.29968 0.88133,0.38739 0.30851,0.0878 0.62657,0.13225 0.94596,0.13229 0.3194,-4e-5 0.63746,-0.0445 0.94597,-0.13229 0.30845,-0.0877 0.60477,-0.21795 0.88133,-0.38739 0.27664,-0.16956 0.53116,-0.3769 0.75702,-0.61669 0.22591,-0.23973 0.42125,-0.5099 0.58099,-0.80353 0.15963,-0.29355 0.28234,-0.60808 0.36497,-0.93548 0.0123,-0.0799 0.0223,-0.16018 0.0299,-0.24073 0.18819,0.0426 0.37929,0.0694 0.57146,0.08 0.31939,-3e-5 0.63745,-0.0445 0.94596,-0.13229 0.30844,-0.0877 0.60477,-0.21796 0.88133,-0.38739 0.27663,-0.16956 0.53117,-0.37691 0.75702,-0.61669 0.2259,-0.23973 0.42125,-0.5099 0.58099,-0.80352 0.15963,-0.29356 0.28234,-0.60809 0.36497,-0.93549 0.0827,-0.32746 0.1246,-0.66506 0.12463,-1.0040796 -3e-5,-0.11952 -0.005,-0.23899 -0.0157,-0.35799 -0.0103,-0.11894 -0.0258,-0.23731 -0.0465,-0.35473 -0.0207,-0.11748 -0.0464,-0.23389 -0.0772,-0.34885 -0.0308,-0.11492 -0.0667,-0.22829 -0.1074,-0.3397 -0.0406,-0.11148 -0.0861,-0.22092 -0.13632,-0.32794 -0.0502,-0.10693 -0.10504,-0.21136 -0.16433,-0.31292 -0.0593,-0.10159 -0.12294,-0.20024 -0.19079,-0.2956 -0.0679,-0.0954 -0.13985,-0.18737 -0.21572,-0.27568 -0.0759,-0.0883 -0.15557,-0.17294 -0.2388,-0.25347 -0.0832,-0.0805 -0.16988,-0.15694 -0.25972,-0.22898 -0.0898,-0.072 -0.18278,-0.1396 -0.2785,-0.20251 -0.0957,-0.0629 -0.19406,-0.12113 -0.2948,-0.17442 -0.10083,-0.0533 -0.20394,-0.10155 -0.30896,-0.1447 -0.10497,-0.0431 -0.21178,-0.081 -0.32004,-0.11367 -0.0162,-0.004 -0.0324,-0.008 -0.0486,-0.0121 -0.0254,-0.0919 -0.0541,-0.18277 -0.0859,-0.27242 -0.0406,-0.11148 -0.0861,-0.22092 -0.13633,-0.32794 -0.0502,-0.10693 -0.10504,-0.21136 -0.16432,-0.31292 -0.0593,-0.10159 -0.12295,-0.20024 -0.1908,-0.2956 -0.0679,-0.0954 -0.13985,-0.18737 -0.21571,-0.27568 -0.0759,-0.0883 -0.15557,-0.17294 -0.2388,-0.25347 -0.0832,-0.0805 -0.16988,-0.15694 -0.25973,-0.22897 -0.0898,-0.072 -0.18278,-0.13961 -0.27849,-0.20252 -0.0957,-0.0629 -0.19407,-0.12113 -0.29481,-0.17442 -0.10082,-0.0533 -0.20393,-0.10155 -0.30896,-0.1447 -0.10497,-0.0431 -0.21177,-0.081 -0.32004,-0.11367 -0.10829,-0.0328 -0.21797,-0.0603 -0.32865,-0.0823 -0.11062,-0.0219 -0.22215,-0.0384 -0.3342,-0.0493 -0.11211,-0.0111 -0.22467,-0.0166 -0.33727,-0.0167 -0.3194,3e-5 -0.63745,0.0445 -0.94596,0.13229 -0.30855,0.0877 -0.60499,0.21792 -0.88164,0.38739 -0.0199,0.0159 -0.0397,0.032 -0.0594,0.0483 -0.014,-0.0125 -0.028,-0.0249 -0.0421,-0.0372 -0.0899,-0.072 -0.18278,-0.13961 -0.2785,-0.20252 -0.0957,-0.0629 -0.19406,-0.12113 -0.2948,-0.17442 -0.10083,-0.0533 -0.20394,-0.10155 -0.30897,-0.1447 -0.10496,-0.0432 -0.21176,-0.0813 -0.32004,-0.114 -0.10829,-0.0327 -0.21797,-0.06 -0.32865,-0.082 -0.11061,-0.022 -0.22214,-0.0386 -0.33419,-0.0497 -0.10049,-0.009 -0.20132,-0.0142 -0.30219,-0.0147 -0.0138,-0.0463 -0.0283,-0.0924 -0.0437,-0.13817 -0.0407,-0.11136 -0.0862,-0.2207 -0.13633,-0.32761 -0.0502,-0.10704 -0.10504,-0.21158 -0.16433,-0.31324 -0.0593,-0.1016 -0.12294,-0.20025 -0.19079,-0.29561 -0.0678,-0.0954 -0.13965,-0.18736 -0.21541,-0.27568 -0.0759,-0.0884 -0.15557,-0.17294 -0.2388,-0.25347 -0.0832,-0.0804 -0.16988,-0.15672 -0.25972,-0.22865 -0.0898,-0.072 -0.18278,-0.1396 -0.2785,-0.20251 -0.0957,-0.0629 -0.19406,-0.12114 -0.2948,-0.17442 -0.10083,-0.0533 -0.20394,-0.10155002 -0.30896,-0.14470002 -0.10497,-0.0432 -0.21177,-0.0813 -0.32004,-0.114 -0.1083,-0.0327 -0.21798,-0.0601 -0.32866,-0.082 -0.11071,-0.022 -0.22234,-0.0386 -0.3345,-0.0496 -0.11202,-0.011 -0.22447,-0.0164 -0.33696,-0.0163 z"
     style="fill:#ffffff;stroke:#000000;stroke-width:1.22703"
     id="could1" />
</svg>
