<?xml version="1.0" encoding="UTF-8" standalone="no"?>
<!-- Created with Inkscape (http://www.inkscape.org/) -->

<svg
   width="100mm"
   height="50mm"
   viewBox="0 0 100 50"
   version="1.1"
   id="svg1"
   inkscape:version="1.3 (0e150ed6c4, 2023-07-21)"
   sodipodi:docname="clouds.svg"
   xmlns:inkscape="http://www.inkscape.org/namespaces/inkscape"
   xmlns:sodipodi="http://sodipodi.sourceforge.net/DTD/sodipodi-0.dtd"
   xmlns="http://www.w3.org/2000/svg"
   xmlns:svg="http://www.w3.org/2000/svg">
  <sodipodi:namedview
     id="namedview1"
     pagecolor="#ffffff"
     bordercolor="#666666"
     borderopacity="1.0"
     inkscape:showpageshadow="2"
     inkscape:pageopacity="0.0"
     inkscape:pagecheckerboard="0"
     inkscape:deskcolor="#d1d1d1"
     inkscape:document-units="mm"
     inkscape:zoom="1.4022026"
     inkscape:cx="184.7094"
     inkscape:cy="102.33899"
     inkscape:window-width="1920"
     inkscape:window-height="1001"
     inkscape:window-x="-9"
     inkscape:window-y="-9"
     inkscape:window-maximized="1"
     inkscape:current-layer="rocket" />
  <defs
     id="defs1" />
  <g
     inkscape:label="Layer 1"
     inkscape:groupmode="layer"
     id="layer1">
    <path
       d="m 33.339868,21.89566 c -0.31938,-7.5e-5 -0.637446,0.0443 -0.945961,0.131961 -0.308566,0.08778 -0.605008,0.218143 -0.881646,0.387717 -0.276611,0.169452 -0.531146,0.376695 -0.757015,0.616362 -0.0094,0.01289 -0.01875,0.02585 -0.02801,0.03887 -0.01402,-0.0051 -0.02808,-0.01011 -0.04216,-0.01502 -0.108297,-0.03269 -0.217979,-0.06005 -0.328656,-0.08199 -0.110616,-0.02189 -0.222147,-0.03835 -0.334194,-0.04932 -0.112115,-0.01106 -0.224673,-0.01662 -0.337272,-0.01666 -0.319392,3.1e-5 -0.63746,0.04451 -0.945961,0.132287 -0.308549,0.08767 -0.604993,0.217931 -0.881646,0.38739 -0.276627,0.169553 -0.531166,0.376908 -0.757015,0.616689 -0.225771,0.239644 -0.421019,0.509709 -0.580686,0.803198 -0.159757,0.293634 -0.286099,0.607312 -0.365275,0.935812 -0.0087,0.03607 0.01427,0.13298 -0.01385,0.11073 -0.147039,-0.11632 -0.240399,-0.242409 -0.371122,-0.347214 -0.08984,-0.07202 -0.182781,-0.139603 -0.278495,-0.202514 -0.09568,-0.06292 -0.194065,-0.121136 -0.294805,-0.174424 -0.200284,-0.105797 -0.411,-0.192653 -0.629,-0.258369 -0.171741,-0.05201 -0.531872,-0.148157 -1.000121,-0.148289 -0.319391,3.2e-5 -0.637462,0.04451 -0.945961,0.132288 -0.308548,0.08767 -0.604994,0.217932 -0.881646,0.38739 -0.276518,0.169577 -0.530954,0.376932 -0.756708,0.616689 -0.225901,0.239724 -0.421255,0.509903 -0.580993,0.803525 -0.159626,0.293546 -0.282342,0.608094 -0.364967,0.935486 -0.0011,0.0087 -0.0023,0.01741 -0.0034,0.02613 -0.0509,-0.01939 -0.102206,-0.03758 -0.153865,-0.05455 -0.108296,-0.03269 -0.21798,-0.06005 -0.328655,-0.08199 -0.110713,-0.02201 -0.222348,-0.03858 -0.334502,-0.04965 -0.112115,-0.01106 -0.224674,-0.01662 -0.337272,-0.01666 -0.31939,3.1e-5 -0.637462,0.04451 -0.945961,0.132288 -0.308456,0.0878 -0.604799,0.218171 -0.881338,0.387717 -0.276609,0.16945 -0.531149,0.376697 -0.757015,0.616362 -0.225793,0.239743 -0.421044,0.509922 -0.580686,0.803524 -0.159732,0.29353 -0.282553,0.608079 -0.365275,0.935486 -0.08259,0.327467 -0.124394,0.665081 -0.124323,1.004079 -7.1e-5,0.338998 0.04173,0.676613 0.124323,1.00408 0.0827,0.327519 0.205518,0.64218 0.365275,0.935812 0.159665,0.293487 0.354915,0.563555 0.580686,0.803198 0.225847,0.239779 0.480389,0.447137 0.757015,0.616689 0.276555,0.169432 0.572897,0.299689 0.881338,0.38739 0.308499,0.08778 0.626571,0.132256 0.945961,0.132288 0.31939,-3.2e-5 0.637462,-0.04451 0.945961,-0.132288 0.174056,-0.06065 0.343603,-0.13513 0.507139,-0.222766 0.0061,0.05962 0.01348,0.119086 0.02216,0.178343 0.0827,0.32754 0.205509,0.642164 0.365275,0.935813 0.159652,0.29362 0.35488,0.563767 0.580686,0.803524 0.22588,0.23968 0.48039,0.446902 0.757015,0.616363 0.276652,0.169582 0.573065,0.299933 0.881646,0.387717 0.308531,0.08767 0.626565,0.132036 0.945961,0.131961 0.319395,7.5e-5 0.63743,-0.04429 0.945961,-0.131961 0.297025,-0.08616 0.582609,-0.211828 0.849949,-0.373999 0.08236,0.324561 0.204116,0.636396 0.362198,0.927646 0.159652,0.29362 0.354882,0.563768 0.580686,0.803526 0.225879,0.239677 0.480392,0.446901 0.757015,0.616362 0.276651,0.169581 0.573067,0.299934 0.881646,0.387716 0.308516,0.08778 0.626554,0.132257 0.945961,0.132288 0.319305,-6e-5 0.637237,-0.04454 0.945654,-0.132288 0.308579,-0.08778 0.604994,-0.218135 0.881645,-0.387716 0.276624,-0.169461 0.531136,-0.376685 0.757016,-0.616362 0.225804,-0.239758 0.421034,-0.509906 0.580685,-0.803526 0.159741,-0.293545 0.282548,-0.608059 0.365275,-0.935485 0.0061,-0.04389 0.01158,-0.08788 0.01631,-0.131961 0.18988,0.105138 0.388109,0.192362 0.592379,0.260656 0.308515,0.08778 0.626555,0.132256 0.945961,0.132287 0.319407,-3.1e-5 0.637447,-0.04451 0.945962,-0.132287 0.308472,-0.08781 0.604784,-0.218163 0.881338,-0.387718 0.149096,-0.103944 0.29083,-0.219341 0.424051,-0.345254 0.05378,0.08055 0.110452,0.158894 0.169867,0.234852 0.225854,0.239786 0.480381,0.447132 0.757015,0.616689 0.276562,0.169437 0.572888,0.299686 0.881338,0.38739 0.308507,0.08778 0.626562,0.132256 0.945961,0.132287 0.319399,-3.1e-5 0.637454,-0.04451 0.945961,-0.132287 0.30845,-0.0877 0.604776,-0.217953 0.881338,-0.38739 0.276634,-0.169557 0.531161,-0.376903 0.757015,-0.616689 0.225907,-0.23973 0.421252,-0.509895 0.580994,-0.803525 0.15963,-0.293554 0.28234,-0.608085 0.364967,-0.935485 0.01232,-0.07989 0.02227,-0.16018 0.02985,-0.240732 0.188194,0.0426 0.379291,0.06936 0.571455,0.08003 0.319396,-3.2e-5 0.637456,-0.04451 0.94596,-0.132288 0.308448,-0.0877 0.604778,-0.217955 0.881338,-0.38739 0.276632,-0.169556 0.531164,-0.376905 0.757016,-0.616689 0.225905,-0.239728 0.421252,-0.509898 0.580994,-0.803525 0.159627,-0.293552 0.28234,-0.608088 0.364967,-0.935486 0.0827,-0.327459 0.124601,-0.665059 0.124631,-1.004079 -3.4e-5,-0.119518 -0.0053,-0.238988 -0.01569,-0.357993 -0.01034,-0.118933 -0.02584,-0.237312 -0.04647,-0.354727 -0.02067,-0.117477 -0.04645,-0.233895 -0.07724,-0.348847 -0.03085,-0.114924 -0.06669,-0.228289 -0.107398,-0.339701 -0.04065,-0.11148 -0.08615,-0.220922 -0.136324,-0.327943 -0.05021,-0.106931 -0.105044,-0.211358 -0.164328,-0.312918 -0.05927,-0.101596 -0.122942,-0.200246 -0.190792,-0.295605 -0.06786,-0.09537 -0.139854,-0.187368 -0.215719,-0.275681 -0.07587,-0.08835 -0.155565,-0.172934 -0.238798,-0.25347 -0.0832,-0.08053 -0.169877,-0.156938 -0.259724,-0.228971 -0.08984,-0.07202 -0.182779,-0.139602 -0.278495,-0.202514 -0.09568,-0.06292 -0.194064,-0.121135 -0.294805,-0.174425 -0.100827,-0.05326 -0.203934,-0.101546 -0.308961,-0.144699 -0.104968,-0.0431 -0.211772,-0.08103 -0.320039,-0.113669 -0.01618,-0.0042 -0.03239,-0.0082 -0.04862,-0.01209 -0.02544,-0.0919 -0.05408,-0.18277 -0.08586,-0.272415 -0.04065,-0.111479 -0.08615,-0.220921 -0.136325,-0.327942 -0.05021,-0.106931 -0.105043,-0.211358 -0.164327,-0.312917 -0.05927,-0.101597 -0.122943,-0.200247 -0.190793,-0.295606 -0.06786,-0.09537 -0.139853,-0.187367 -0.215718,-0.275681 -0.07587,-0.08835 -0.155566,-0.172934 -0.238799,-0.253469 -0.0832,-0.08053 -0.169876,-0.156939 -0.259723,-0.228972 -0.08984,-0.07202 -0.182779,-0.139602 -0.278496,-0.202515 -0.09568,-0.06292 -0.194063,-0.121134 -0.294805,-0.174423 -0.100826,-0.05326 -0.203933,-0.101547 -0.30896,-0.1447 -0.104969,-0.0431 -0.211773,-0.08103 -0.320039,-0.113669 -0.108294,-0.0328 -0.217973,-0.06026 -0.328655,-0.08231 -0.110619,-0.02189 -0.222146,-0.03835 -0.334195,-0.04932 -0.112117,-0.01106 -0.224671,-0.01662 -0.337272,-0.01666 -0.319397,3.2e-5 -0.637455,0.04451 -0.945961,0.132288 -0.308554,0.08768 -0.604988,0.217928 -0.881645,0.38739 -0.01995,0.0159 -0.03975,0.03202 -0.05939,0.04834 -0.01396,-0.01252 -0.02802,-0.02494 -0.04216,-0.03724 -0.08984,-0.07202 -0.182779,-0.139602 -0.278495,-0.202515 -0.09568,-0.06292 -0.194064,-0.121135 -0.294805,-0.174423 -0.100826,-0.05326 -0.203934,-0.101548 -0.308961,-0.1447 -0.104962,-0.04321 -0.211768,-0.08125 -0.320039,-0.113996 -0.108297,-0.03268 -0.217978,-0.06005 -0.328655,-0.08199 -0.110613,-0.022 -0.222141,-0.03857 -0.334194,-0.04965 -0.100491,-0.0093 -0.201318,-0.01423 -0.302191,-0.0147 -0.01375,-0.04634 -0.02832,-0.09241 -0.0437,-0.138168 -0.04066,-0.111368 -0.08616,-0.220702 -0.136325,-0.327615 -0.05019,-0.107041 -0.105036,-0.211579 -0.164327,-0.313244 -0.05927,-0.101596 -0.122944,-0.200248 -0.190793,-0.295606 -0.06776,-0.09536 -0.139651,-0.187362 -0.215411,-0.275681 -0.07587,-0.08835 -0.155566,-0.172935 -0.238798,-0.253469 -0.08321,-0.08041 -0.169884,-0.15672 -0.259724,-0.228646 -0.08984,-0.07202 -0.18278,-0.139602 -0.278495,-0.202514 -0.09568,-0.06292 -0.194064,-0.121135 -0.294805,-0.174423 -0.100826,-0.05326 -0.203935,-0.101548 -0.308961,-0.144701 -0.104962,-0.04321 -0.211768,-0.08125 -0.320039,-0.113996 -0.108297,-0.03268 -0.217979,-0.06005 -0.328655,-0.08199 -0.110714,-0.02201 -0.222347,-0.03858 -0.334502,-0.04965 -0.112018,-0.01095 -0.224472,-0.0164 -0.336964,-0.01633 z"
       style="opacity:1;fill:#ffffff;stroke:#000000;stroke-width:1.22703"
       id="could1"
       sodipodi:nodetypes="cccccccccccccsscccccccccccccsccccccccccccccccccccccccccccccccccccccccccccccccccccccccccccccsccsccccccccsccsccccccccccccccccccccccccccccccccc"
       inkscape:label="cloud1" />
    <path
       d="m 20.211231,3.7360402 c -0.320698,-3e-6 -0.640045,0.04204 -0.949813,0.125057 -0.309628,0.08296 -0.60708,0.206141 -0.8847,0.366386 -0.27758,0.160282 -0.532986,0.356267 -0.759644,0.58291 -0.226861,0.226786 -0.423022,0.482369 -0.583427,0.760161 -0.160245,0.27762 -0.28343,0.575072 -0.366386,0.8847 -0.02618,0.137502 -0.04447,0.276404 -0.05478,0.415996 -0.05583,-0.03773 -0.112705,-0.07392 -0.170532,-0.108521 -0.09237,-0.05336 -0.187037,-0.10268 -0.283703,-0.147795 -0.0967,-0.0451 -0.195331,-0.08597 -0.29559,-0.122473 -0.100342,-0.03664 -0.202251,-0.06889 -0.305407,-0.09664 -0.103152,-0.02762 -0.207476,-0.05073 -0.312643,-0.06925 -0.1051,-0.01856 -0.210975,-0.03253 -0.317293,-0.04186 -0.106367,-0.0093 -0.213104,-0.01396 -0.319877,-0.01395 -0.320694,-3e-6 -0.64005,0.04204 -0.949813,0.125057 -0.309649,0.08312 -0.607111,0.206481 -0.884701,0.366903 -0.277757,0.160242 -0.533345,0.356234 -0.76016,0.58291 -0.226676,0.226815 -0.422668,0.482403 -0.58291,0.76016 -0.07276,0.146862 -0.135608,0.298456 -0.188102,0.45372 -0.05889,-0.01957 -0.118546,-0.03681 -0.178801,-0.05168 -0.08609,-0.01951 -0.173227,-0.03418 -0.260966,-0.04392 -0.08767,-0.0099 -0.175837,-0.01493 -0.264066,-0.01499 -0.247411,-4.3e-5 -0.493316,0.03885 -0.7286383,0.115238 -0.235487,0.0764 -0.457503,0.189413 -0.657841,0.334864 -0.130655,0.105528 -0.249679,0.224725 -0.355017,0.355534 -0.0056,-0.008 -0.01132,-0.01588 -0.01705,-0.02377 -0.05499,-0.06904 -0.113834,-0.134955 -0.176217,-0.197404 -0.06228,-0.06237 -0.128021,-0.121206 -0.196887,-0.176216 -0.06908,-0.05499 -0.141203,-0.106061 -0.216008,-0.152962 -0.07471,-0.04702 -0.152007,-0.08981 -0.23151,-0.128158 -0.07951,-0.03831 -0.161127,-0.07213 -0.244429,-0.101286 -0.08315,-0.029 -0.167866,-0.05333 -0.253732,-0.07286 -0.08608,-0.01969 -0.173219,-0.03453 -0.260966,-0.04444 -0.08767,-0.0099 -0.175838,-0.01493 -0.264066,-0.01499 -0.247434,1.23e-4 -0.493348,0.03919 -0.728638,0.115755 -0.235483,0.0764 -0.457507,0.189415 -0.657841,0.334863 -0.200096,0.14554 -0.376073,0.321692 -0.521415,0.521932 -0.145582,0.200142 -0.258773,0.42199 -0.33538,0.657324 -0.07639,0.2353178 -0.115282,0.4812318 -0.115239,0.7286378 -9.7e-5,0.247579 0.0388,0.493672 0.115239,0.729154 0.07661,0.235335 0.189798,0.457182 0.33538,0.657325 0.0629,0.07098 0.130037,0.13812 0.201021,0.201021 -0.071,0.06307 -0.138137,0.130377 -0.201021,0.201538 -0.145581,0.200142 -0.258773,0.42199 -0.33538,0.657324 -0.07639,0.235317 -0.115282,0.481233 -0.115239,0.728638 -9.7e-5,0.247579 0.0388,0.493672 0.115239,0.729154 0.07661,0.235334 0.189799,0.457183 0.33538,0.657325 0.145342,0.200239 0.32132,0.376391 0.521415,0.521932 0.200334,0.145447 0.422359,0.258465 0.657841,0.334863 0.235317,0.07639 0.481232,0.115281 0.728638,0.115238 0.247405,4.3e-5 0.49332,-0.03885 0.728637,-0.115238 0.154178,-0.05897 0.301766,-0.133976 0.440284,-0.223759 0.0068,0.06619 0.01543,0.132197 0.02584,0.197921 0.08312,0.309647 0.206481,0.607112 0.366902,0.8847 0.160242,0.277756 0.356236,0.533347 0.582911,0.76016 0.226813,0.226675 0.482404,0.422669 0.76016,0.582911 0.2775883,0.160421 0.5750533,0.283785 0.8847003,0.366902 0.309762,0.08301 0.629122,0.12506 0.949813,0.125057 0.320519,-4.2e-5 0.639702,-0.04209 0.949296,-0.125057 0.309826,-0.08307 0.607468,-0.20644 0.885218,-0.366902 0.277574,-0.160279 0.53299,-0.356272 0.759643,-0.582911 0.01748,-0.02219 0.03471,-0.04459 0.05168,-0.06718 0.01679,0.02259 0.03385,0.04498 0.05116,0.06718 0.226823,0.226685 0.482393,0.422663 0.760161,0.582911 0.277599,0.160427 0.57504,0.283782 0.8847,0.366902 0.309775,0.08302 0.629108,0.12506 0.949813,0.125057 0.320532,-4.2e-5 0.639689,-0.04209 0.949296,-0.125057 0.309839,-0.08308 0.607456,-0.206433 0.885217,-0.366902 0.277586,-0.160286 0.532981,-0.356262 0.759644,-0.582911 0.01748,-0.02219 0.03471,-0.04459 0.05168,-0.06718 0.0168,0.02259 0.03385,0.04498 0.05116,0.06718 0.226822,0.226684 0.482394,0.422663 0.76016,0.582911 0.277599,0.160427 0.575042,0.283782 0.884701,0.366902 0.309773,0.08301 0.629109,0.12506 0.949813,0.125057 0.320531,-4.2e-5 0.639689,-0.04209 0.949296,-0.125057 0.309837,-0.08308 0.607456,-0.206434 0.885217,-0.366902 0.277585,-0.160285 0.532981,-0.356263 0.759644,-0.582911 0.01748,-0.02219 0.03471,-0.04459 0.05168,-0.06718 0.01679,0.02259 0.03385,0.04498 0.05116,0.06718 0.226819,0.226682 0.482396,0.422664 0.76016,0.582911 0.277596,0.160425 0.575044,0.283783 0.8847,0.366902 0.309771,0.08301 0.629112,0.12506 0.949813,0.125057 0.320529,-4.2e-5 0.639693,-0.04209 0.949296,-0.125057 0.309835,-0.08308 0.607459,-0.206435 0.885218,-0.366902 0.277582,-0.160284 0.532983,-0.356265 0.759643,-0.582911 0.06746,-0.08058 0.131426,-0.164037 0.19172,-0.250113 0.09015,0.10789 0.189766,0.207509 0.297656,0.297656 0.200183,0.145405 0.422013,0.258413 0.657324,0.334863 0.235327,0.07639 0.481223,0.115282 0.728638,0.115239 0.247589,9.7e-5 0.493663,-0.03879 0.729154,-0.115239 0.235312,-0.07645 0.457141,-0.189458 0.657325,-0.334863 0.200287,-0.145504 0.376428,-0.321645 0.521932,-0.521932 0.145405,-0.200184 0.258412,-0.422013 0.334863,-0.657324 0.07645,-0.235492 0.115336,-0.481566 0.115238,-0.729155 1.2e-4,-0.08822 -0.0047,-0.176386 -0.01447,-0.264066 -0.0099,-0.08758 -0.02477,-0.174534 -0.04444,-0.26045 -0.01968,-0.08605 -0.04418,-0.17094 -0.07338,-0.254248 -0.02916,-0.08331 -0.06298,-0.164914 -0.101286,-0.244429 -0.03819,-0.07949 -0.0808,-0.156789 -0.127641,-0.231511 -0.04692,-0.07463 -0.09799,-0.146577 -0.152962,-0.21549 -0.055,-0.06905 -0.113831,-0.134954 -0.176217,-0.197404 -0.06245,-0.06239 -0.128358,-0.12122 -0.197404,-0.176217 -0.06908,-0.05499 -0.1412,-0.106059 -0.216007,-0.152962 -0.07454,-0.047 -0.151664,-0.08979 -0.230994,-0.128158 -0.07952,-0.03831 -0.161124,-0.07212 -0.244429,-0.101286 -0.08332,-0.02902 -0.168205,-0.05335 -0.254249,-0.07286 -0.08609,-0.01969 -0.173215,-0.03453 -0.260965,-0.04444 -0.08767,-0.0099 -0.175836,-0.01493 -0.264067,-0.01499 -0.247443,1.24e-4 -0.493339,0.03919 -0.728638,0.115755 -0.113754,0.04714 -0.223649,0.103128 -0.328662,0.167432 -0.02678,-0.07064 -0.05573,-0.140439 -0.08682,-0.20929 -0.04512,-0.09667 -0.09443,-0.191331 -0.147795,-0.283704 -0.05341,-0.09237 -0.110828,-0.182381 -0.172082,-0.269751 -0.06121,-0.08754 -0.126212,-0.172376 -0.194821,-0.254248 -0.06871,-0.08166 -0.140958,-0.160284 -0.216524,-0.235644 -0.07536,-0.07557 -0.153987,-0.147813 -0.235644,-0.216524 -0.08187,-0.06861 -0.166706,-0.133614 -0.254248,-0.194821 -0.08737,-0.06125 -0.177377,-0.118672 -0.269751,-0.172082 -0.09237,-0.05337 -0.187035,-0.102679 -0.283704,-0.147795 -0.09687,-0.04511 -0.19567,-0.08598 -0.296106,-0.122473 -0.100353,-0.03647 -0.202257,-0.06854 -0.305408,-0.09612 -0.02783,-0.0065 -0.05574,-0.01273 -0.08372,-0.0186 0.0033,-0.0081 0.0066,-0.01618 0.0098,-0.02429 0.08297,-0.309603 0.125015,-0.628769 0.125057,-0.949296 6e-6,-0.106775 -0.0046,-0.213509 -0.01395,-0.319878 -0.0093,-0.106319 -0.0233,-0.21219 -0.04186,-0.3172928 -0.01852,-0.105169 -0.04163,-0.209488 -0.06925,-0.312642 -0.02758,-0.10315 -0.05965,-0.205055 -0.09612,-0.305408 -0.03651,-0.100261 -0.07737,-0.19889 -0.122473,-0.295589 -0.0451,-0.09684 -0.09442,-0.19168 -0.147795,-0.284221 -0.05341,-0.09237 -0.110828,-0.182381 -0.172082,-0.269751 -0.06122,-0.08737 -0.126225,-0.172028 -0.194821,-0.253731 -0.06853,-0.08182 -0.140606,-0.160622 -0.216007,-0.236161 -0.07554,-0.0754 -0.154339,-0.147476 -0.236161,-0.216008 -0.08186,-0.06878 -0.166696,-0.133962 -0.254248,-0.195336 -0.08738,-0.06108 -0.177387,-0.118325 -0.269751,-0.171566 -0.09237,-0.05336 -0.187035,-0.102679 -0.283704,-0.147795 -0.09687,-0.04511 -0.19567,-0.08598 -0.296106,-0.122473 -0.100174,-0.03663 -0.201907,-0.06887 -0.304891,-0.09663 -0.103154,-0.02762 -0.207473,-0.05072 -0.312642,-0.06925 -0.105103,-0.01856 -0.210974,-0.03253 -0.317294,-0.04186 -0.106368,-0.0093 -0.213102,-0.01396 -0.319877,-0.01395 -0.3207,-3e-6 -0.640043,0.04204 -0.949812,0.125057 -0.02179,0.0087 -0.0435,0.01771 -0.06511,0.02687 v -0.0047 c -0.0092,-0.106312 -0.02295,-0.212184 -0.04134,-0.317293 -0.01852,-0.105169 -0.04163,-0.209489 -0.06925,-0.312643 -0.02776,-0.102983 -0.06001,-0.204717 -0.09664,-0.304891 -0.03649,-0.100435 -0.07736,-0.199238 -0.122473,-0.296106 -0.04512,-0.09667 -0.09443,-0.191332 -0.147795,-0.283703 -0.0534,-0.09255 -0.110816,-0.18273 -0.172083,-0.270268 -0.06122,-0.08737 -0.126224,-0.172029 -0.19482,-0.253731 -0.06853,-0.08182 -0.140607,-0.160623 -0.216007,-0.236162 -0.07554,-0.0754 -0.15434,-0.147476 -0.236161,-0.216007 -0.0817,-0.0686 -0.166366,-0.133602 -0.253732,-0.19482 -0.08754,-0.06127 -0.177719,-0.118686 -0.270267,-0.172083 -0.09237,-0.05336 -0.187036,-0.102679 -0.283704,-0.147794 -0.0967,-0.0451 -0.195329,-0.08597 -0.295589,-0.122474 -0.100352,-0.03647 -0.202259,-0.06854 -0.305408,-0.09612 -0.103153,-0.02762 -0.207474,-0.05072 -0.312642,-0.06925 -0.105102,-0.01856 -0.210974,-0.03253 -0.317294,-0.04186 -0.106368,-0.0093 -0.213103,-0.01396 -0.319877,-0.01395 z"
       style="opacity:1;fill:#ffffff;stroke:#000000;stroke-width:1.28561"
       id="cloud2"
       inkscape:label="cloud2" />
    <path
       d="m 53.292747,5.3050993 c -0.274828,2.9e-5 -0.549003,0.02513 -0.818547,0.07493 -0.269683,0.04983 -0.533453,0.124152 -0.787482,0.221894 -0.254017,0.09767 -0.497096,0.218299 -0.725711,0.360122 -0.228505,0.141903 -0.441457,0.30432 -0.635765,0.484893 -0.13823,0.135258 -0.265835,0.279561 -0.381821,0.431784 -0.01118,-0.0043 -0.02237,-0.0085 -0.0336,-0.01273 -0.0936,-0.03248 -0.188429,-0.06184 -0.284287,-0.08803 -0.0959,-0.02612 -0.192772,-0.04905 -0.29043,-0.06875 -0.09759,-0.01974 -0.195909,-0.03625 -0.294764,-0.04947 -0.09892,-0.01323 -0.198328,-0.02319 -0.298014,-0.02982 -0.09966,-0.0066 -0.199549,-0.0099 -0.29946,-0.0098 -0.274826,2.9e-5 -0.549005,0.02513 -0.818548,0.07493 -0.26968,0.04983 -0.533455,0.124153 -0.787481,0.221894 -0.254014,0.09767 -0.497098,0.218301 -0.725711,0.360122 -0.228486,0.141787 -0.441441,0.304084 -0.635765,0.48453 -0.194404,0.180556 -0.369245,0.378433 -0.521978,0.590746 -0.152782,0.212331 -0.282733,0.438111 -0.387961,0.674048 -0.10518,0.235863 -0.185159,0.480772 -0.238773,0.731159 -0.0024,0.02144 -0.0048,0.0429 -0.0069,0.06439 -0.0867,-0.0053 -0.173561,-0.0081 -0.260447,-0.0084 -0.274813,-9.1e-5 -0.548993,0.02488 -0.818548,0.07457 -0.269679,0.04983 -0.533455,0.1241537 -0.787481,0.2218927 -0.254014,0.09767 -0.497099,0.218301 -0.725712,0.360124 -0.228502,0.141901 -0.441458,0.304321 -0.635764,0.484892 -0.194404,0.180557 -0.369245,0.378434 -0.521978,0.590747 -0.152759,0.212215 -0.28271,0.437873 -0.387961,0.673684 -0.10518,0.235863 -0.18516,0.480772 -0.238773,0.731159 -0.05362,0.250471 -0.0806,0.50525 -0.08055,0.760623 -1.9e-5,0.255251 0.02696,0.509907 0.08055,0.760259 0.05362,0.250386 0.133593,0.495296 0.238773,0.731159 0.105251,0.235811 0.235202,0.461469 0.387961,0.673684 0.152733,0.212313 0.327574,0.41019 0.521978,0.590747 0.194306,0.180572 0.407262,0.342992 0.635764,0.484893 0.228613,0.141821 0.471698,0.262448 0.725712,0.360123 0.254026,0.09774 0.517802,0.172066 0.787481,0.221894 0.269542,0.0498 0.543723,0.0749 0.818548,0.07493 0.274946,-7e-6 0.549249,-0.02511 0.818909,-0.07493 0.269679,-0.04983 0.533456,-0.124154 0.787481,-0.221894 0.25389,-0.09769 0.496852,-0.218321 0.72535,-0.360123 0.221974,-0.138591 0.429191,-0.296584 0.618787,-0.471797 0.02212,0.07573 0.04669,0.150818 0.07369,0.225167 0.10523,0.235942 0.235177,0.461713 0.387962,0.674048 0.152756,0.21219 0.32759,0.409938 0.521977,0.590384 0.194424,0.180592 0.407493,0.343006 0.636126,0.484893 0.228502,0.141804 0.471456,0.262426 0.72535,0.360122 0.254031,0.09774 0.517797,0.172065 0.787482,0.221894 0.269665,0.04983 0.543957,0.07493 0.818909,0.07493 0.27483,-2.9e-5 0.549,-0.02513 0.818547,-0.07493 0.269685,-0.04983 0.533451,-0.124152 0.787481,-0.221894 0.25402,-0.09768 0.497095,-0.218298 0.725712,-0.360122 0.228507,-0.141905 0.441455,-0.304319 0.635765,-0.484893 0.194387,-0.180446 0.369222,-0.378194 0.521977,-0.590384 0.152786,-0.212335 0.282733,-0.438106 0.387961,-0.674048 0.0058,-0.01742 0.01145,-0.03489 0.01698,-0.05238 0.0074,0.0057 0.01491,0.01142 0.0224,0.0171 0.228616,0.141824 0.471693,0.262447 0.725711,0.360122 0.25403,0.09774 0.517798,0.172066 0.787482,0.221895 0.269546,0.04981 0.543718,0.0749 0.818547,0.07493 0.274951,-7e-6 0.549245,-0.02511 0.818909,-0.07493 0.269684,-0.04983 0.533452,-0.124153 0.787481,-0.221895 0.253894,-0.0977 0.496849,-0.218318 0.725351,-0.360122 0.228614,-0.141772 0.441685,-0.304064 0.636126,-0.484529 0.194406,-0.18056 0.369243,-0.378431 0.521977,-0.590747 0.152785,-0.212334 0.282732,-0.438107 0.387961,-0.674048 0.105182,-0.235867 0.18516,-0.480768 0.238774,-0.731159 0.05359,-0.250356 0.08057,-0.505004 0.08055,-0.760259 6.8e-5,-0.09272 -0.0034,-0.185422 -0.01048,-0.277914 -0.0072,-0.0926 -0.01789,-0.184933 -0.03215,-0.276821 -0.01418,-0.09186 -0.0319,-0.183225 -0.05311,-0.273912 -0.02134,-0.09064 -0.04616,-0.180549 -0.07441,-0.269546 -0.02803,-0.08904 -0.05948,-0.177131 -0.09428,-0.26409 -0.03499,-0.08685 -0.0733,-0.172508 -0.114872,-0.256815 -0.04147,-0.08439 -0.08617,-0.167383 -0.134016,-0.248812 -0.04785,-0.08145 -0.09882,-0.161285 -0.1528,-0.239354 -0.05401,-0.07801 -0.111001,-0.154208 -0.170862,-0.228442 -0.05993,-0.07433 -0.122707,-0.14664 -0.188201,-0.216801 -0.0654,-0.07013 -0.133476,-0.138083 -0.204095,-0.203706 -0.07064,-0.06558 -0.143774,-0.12879 -0.219267,-0.189519 -0.07552,-0.06076 -0.153357,-0.119003 -0.233355,-0.174605 -0.07994,-0.05557 -0.161993,-0.108469 -0.245997,-0.1586 -0.08401,-0.05012 -0.169916,-0.09744 -0.257557,-0.141866 -0.08772,-0.04454 -0.177118,-0.08616 -0.268033,-0.1247697 -0.09084,-0.03845 -0.183138,-0.07388 -0.276702,-0.106219 -0.0936,-0.03248 -0.188428,-0.06184 -0.284288,-0.08803 -0.0959,-0.02612 -0.19277,-0.04905 -0.290429,-0.06875 -0.09759,-0.01975 -0.195908,-0.03624 -0.294764,-0.04947 -0.09892,-0.01323 -0.198327,-0.02319 -0.298015,-0.02982 -0.01842,-7.04e-4 -0.03684,-0.0013 -0.05526,-0.0018 0.01717,-0.111745 0.0291,-0.224136 0.03576,-0.336843 -5.2e-5,-0.09273 -0.0036,-0.185426 -0.01084,-0.277913 -0.007,-0.09259 -0.01764,-0.18493 -0.03178,-0.276822 -0.01419,-0.09174 -0.0319,-0.182981 -0.05311,-0.273548 -0.02134,-0.09064 -0.04616,-0.180549 -0.07441,-0.269546 -0.02815,-0.08905 -0.05972,-0.177136 -0.09464,-0.26409 -0.03486,-0.08696 -0.07305,-0.172747 -0.114509,-0.257178 -0.04147,-0.08439 -0.08617,-0.167384 -0.134016,-0.248813 -0.04785,-0.08145 -0.09882,-0.161285 -0.152801,-0.239354 -0.05401,-0.07801 -0.111,-0.154208 -0.170862,-0.228442 -0.05993,-0.07432 -0.122707,-0.14664 -0.1882,-0.216801 -0.06541,-0.07001 -0.133483,-0.137838 -0.204095,-0.203342 -0.07063,-0.0657 -0.143768,-0.129035 -0.219267,-0.189883 -0.07552,-0.06076 -0.153358,-0.119003 -0.233355,-0.174605 -0.07994,-0.05557 -0.161994,-0.108469 -0.245997,-0.1586 -0.08401,-0.05012 -0.169917,-0.09744 -0.257557,-0.141866 -0.08772,-0.04442 -0.177124,-0.08591 -0.268034,-0.124406 -0.09084,-0.03858 -0.183133,-0.07412 -0.276702,-0.106582 -0.0936,-0.03248 -0.188428,-0.06184 -0.284288,-0.08803 -0.0959,-0.02612 -0.19277,-0.04905 -0.290429,-0.06875 -0.09759,-0.01975 -0.195908,-0.03625 -0.294764,-0.04947 -0.09893,-0.01311 -0.198331,-0.02294 -0.298014,-0.02947 -0.09966,-0.0067 -0.199543,-0.0101 -0.29946,-0.01019 z"
       style="opacity:1;fill:#ffffff;stroke:#000000;stroke-width:1.40293"
       id="cloud3"
       inkscape:label="cloud3" />
    <g
       id="rocket"
       inkscape:label="rocket">
      <g
         id="flame"
         inkscape:label="flame"
         transform="translate(0,-15.345837)">
        <path
           d="m 84.158172,33.758658 a 3.915343,4.0804477 0 0 0 -0.128675,0.114722 3.915343,4.0804477 0 0 0 -0.398942,0.486792 3.915343,4.0804477 0 0 0 -0.32091,0.546219 3.915343,4.0804477 0 0 0 -0.235128,0.591179 3.915343,4.0804477 0 0 0 -0.143661,0.622701 3.915343,4.0804477 0 0 0 -0.04806,0.638204 3.915343,4.0804477 0 0 0 0.04806,0.638721 3.915343,4.0804477 0 0 0 0.143661,0.622701 3.915343,4.0804477 0 0 0 0.235128,0.591178 3.915343,4.0804477 0 0 0 0.32091,0.54622 3.915343,4.0804477 0 0 0 0.398942,0.486792 3.915343,4.0804477 0 0 0 0.12299,0.109037 3.915343,4.0804477 0 0 0 0.122473,-0.109037 3.915343,4.0804477 0 0 0 0.398943,-0.486792 3.915343,4.0804477 0 0 0 0.32091,-0.54622 3.915343,4.0804477 0 0 0 0.235128,-0.591178 3.915343,4.0804477 0 0 0 0.14366,-0.622701 3.915343,4.0804477 0 0 0 0.04806,-0.638721 3.915343,4.0804477 0 0 0 -0.0062,-0.22841 3.915343,4.0804477 0 0 0 -0.0186,-0.22841 3.915343,4.0804477 0 0 0 -0.03049,-0.226343 3.915343,4.0804477 0 0 0 -0.04289,-0.224792 3.915343,4.0804477 0 0 0 -0.05478,-0.221175 3.915343,4.0804477 0 0 0 -0.06666,-0.218075 3.915343,4.0804477 0 0 0 -0.07855,-0.21394 3.915343,4.0804477 0 0 0 -0.0894,-0.20929 3.915343,4.0804477 0 0 0 -0.100769,-0.203088 3.915343,4.0804477 0 0 0 -0.111621,-0.197404 3.915343,4.0804477 0 0 0 -0.121956,-0.190169 3.915343,4.0804477 0 0 0 -0.132292,-0.182935 3.915343,4.0804477 0 0 0 -0.141593,-0.174666 3.915343,4.0804477 0 0 0 -0.150896,-0.166398 3.915343,4.0804477 0 0 0 -0.116788,-0.114722 z"
           style="opacity:1;fill:#ff0000;stroke:#000000"
           id="path47" />
        <path
           d="m 84.154788,34.226998 a 1.687218,1.9969503 0 0 0 -0.05545,0.05615 1.687218,1.9969503 0 0 0 -0.171913,0.238233 1.687218,1.9969503 0 0 0 -0.138289,0.267317 1.687218,1.9969503 0 0 0 -0.101322,0.28932 1.687218,1.9969503 0 0 0 -0.06191,0.304747 1.687218,1.9969503 0 0 0 -0.02071,0.312333 1.687218,1.9969503 0 0 0 0.02071,0.312587 1.687218,1.9969503 0 0 0 0.06191,0.304747 1.687218,1.9969503 0 0 0 0.101322,0.289319 1.687218,1.9969503 0 0 0 0.138289,0.267318 1.687218,1.9969503 0 0 0 0.171913,0.238233 1.687218,1.9969503 0 0 0 0.053,0.05336 1.687218,1.9969503 0 0 0 0.05278,-0.05336 1.687218,1.9969503 0 0 0 0.171914,-0.238233 1.687218,1.9969503 0 0 0 0.138288,-0.267318 1.687218,1.9969503 0 0 0 0.101322,-0.289319 1.687218,1.9969503 0 0 0 0.06191,-0.304747 1.687218,1.9969503 0 0 0 0.02071,-0.312587 1.687218,1.9969503 0 0 0 -0.0027,-0.111782 1.687218,1.9969503 0 0 0 -0.008,-0.111783 1.687218,1.9969503 0 0 0 -0.01314,-0.110771 1.687218,1.9969503 0 0 0 -0.01848,-0.110012 1.687218,1.9969503 0 0 0 -0.02361,-0.108242 1.687218,1.9969503 0 0 0 -0.02873,-0.106725 1.687218,1.9969503 0 0 0 -0.03385,-0.104701 1.687218,1.9969503 0 0 0 -0.03852,-0.102425 1.687218,1.9969503 0 0 0 -0.04342,-0.09939 1.687218,1.9969503 0 0 0 -0.0481,-0.09661 1.687218,1.9969503 0 0 0 -0.05255,-0.09307 1.687218,1.9969503 0 0 0 -0.05701,-0.08953 1.687218,1.9969503 0 0 0 -0.06102,-0.08548 1.687218,1.9969503 0 0 0 -0.06503,-0.08143 1.687218,1.9969503 0 0 0 -0.05033,-0.05615 z"
           style="opacity:1;fill:#ffff00;stroke:#000000;stroke-width:0.2;stroke-dasharray:none"
           id="path48" />
      </g>
      <g
         id="body"
         inkscape:label="body"
         transform="translate(0,-15.345837)">
        <path
           d="m 84.168506,18.882052 a 8.8213148,11.93472 0 0 0 -0.241329,0.121956 8.8213148,11.93472 0 0 0 -1.104325,0.816488 8.8213148,11.93472 0 0 0 -1.007691,1.020092 8.8213148,11.93472 0 0 0 -0.889868,1.204061 8.8213148,11.93472 0 0 0 -0.754476,1.363225 8.8213148,11.93472 0 0 0 -0.603064,1.494482 8.8213148,11.93472 0 0 0 -0.439766,1.595768 8.8213148,11.93472 0 0 0 -0.267684,1.663981 8.8213148,11.93472 0 0 0 -0.08992,1.698088 8.8213148,11.93472 0 0 0 0.08992,1.698604 8.8213148,11.93472 0 0 0 0.267684,1.663981 8.8213148,11.93472 0 0 0 0.439766,1.595252 8.8213148,11.93472 0 0 0 0.150379,0.373104 h 8.868192 a 8.8213148,11.93472 0 0 0 0.150378,-0.373104 8.8213148,11.93472 0 0 0 0.439767,-1.595252 8.8213148,11.93472 0 0 0 0.267684,-1.663981 8.8213148,11.93472 0 0 0 0.08992,-1.698604 8.8213148,11.93472 0 0 0 -0.01085,-0.585494 8.8213148,11.93472 0 0 0 -0.03152,-0.583944 8.8213148,11.93472 0 0 0 -0.05323,-0.58136 8.8213148,11.93472 0 0 0 -0.0739,-0.577225 8.8213148,11.93472 0 0 0 -0.09508,-0.571542 8.8213148,11.93472 0 0 0 -0.115238,-0.564823 8.8213148,11.93472 0 0 0 -0.135909,-0.556039 8.8213148,11.93472 0 0 0 -0.156063,-0.546736 8.8213148,11.93472 0 0 0 -0.175183,-0.535368 8.8213148,11.93472 0 0 0 -0.19482,-0.523482 8.8213148,11.93472 0 0 0 -0.213424,-0.50953 8.8213148,11.93472 0 0 0 -0.23151,-0.49506 8.8213148,11.93472 0 0 0 -0.249081,-0.478524 8.8213148,11.93472 0 0 0 -0.26665,-0.461987 8.8213148,11.93472 0 0 0 -0.28267,-0.443384 8.8213148,11.93472 0 0 0 -0.29869,-0.424264 8.8213148,11.93472 0 0 0 -0.313676,-0.404109 8.8213148,11.93472 0 0 0 -0.327628,-0.382406 8.8213148,11.93472 0 0 0 -0.341582,-0.360701 8.8213148,11.93472 0 0 0 -0.353983,-0.336931 8.8213148,11.93472 0 0 0 -0.365869,-0.313676 8.8213148,11.93472 0 0 0 -0.376721,-0.288871 8.8213148,11.93472 0 0 0 -0.38654,-0.263033 8.8213148,11.93472 0 0 0 -0.315743,-0.189652 z"
           style="opacity:1;fill:#5bf33e;fill-opacity:1;stroke:#000000"
           id="path41" />
        <path
           sodipodi:type="star"
           style="opacity:1;fill:#808080;fill-opacity:1;stroke:#000000;stroke-width:1;stroke-dasharray:none"
           id="path42"
           inkscape:flatsided="true"
           sodipodi:sides="3"
           sodipodi:cx="81.32592"
           sodipodi:cy="32.832275"
           sodipodi:r1="4.737052"
           sodipodi:r2="2.368526"
           sodipodi:arg1="2.3421109"
           sodipodi:arg2="3.3893085"
           inkscape:rounded="0"
           inkscape:randomized="0"
           d="m 78.023824,36.228718 2.011739,-7.954363 5.882811,5.719399 z"
           inkscape:transform-center-x="-0.061070254"
           inkscape:transform-center-y="-0.81604244"
           transform="matrix(0.71301257,0.18027751,-0.17505743,0.6923667,26.391534,-3.6872696)" />
        <circle
           style="opacity:1;fill:#008080;fill-opacity:1;stroke:#000000;stroke-width:1;stroke-dasharray:none"
           id="path44"
           cx="84.152229"
           cy="25.143106"
           r="1.9340851" />
        <path
           sodipodi:type="star"
           style="opacity:1;fill:#808080;fill-opacity:1;stroke:#000000;stroke-width:1;stroke-dasharray:none"
           id="path45"
           inkscape:flatsided="true"
           sodipodi:sides="3"
           sodipodi:cx="81.32592"
           sodipodi:cy="32.832275"
           sodipodi:r1="4.737052"
           sodipodi:r2="2.368526"
           sodipodi:arg1="2.3421109"
           sodipodi:arg2="3.3893085"
           inkscape:rounded="0"
           inkscape:randomized="0"
           d="m 78.023824,36.228718 2.011739,-7.954363 5.882811,5.719399 z"
           inkscape:transform-center-x="0.061065741"
           inkscape:transform-center-y="-0.81604244"
           transform="matrix(-0.71301257,0.18027751,0.17505743,0.6923667,141.98185,-3.6872696)" />
      </g>
    </g>
    <g
       id="uap"
       inkscape:label="uap">
      <path
         d="m 71.382206,29.558556 a 1.7987653,2.9453646 0 0 0 -0.31238,0.04465 1.7987653,2.9453646 0 0 0 -0.302824,0.133015 1.7987653,2.9453646 0 0 0 -0.284206,0.216898 1.7987653,2.9453646 0 0 0 -0.256856,0.294427 1.7987653,2.9453646 0 0 0 -0.221599,0.363177 1.7987653,2.9453646 0 0 0 -0.179915,0.420531 1.7987653,2.9453646 0 0 0 -0.132465,0.465181 1.7987653,2.9453646 0 0 0 -0.08123,0.496005 1.7987653,2.9453646 0 0 0 -0.02735,0.511512 1.7987653,2.9453646 0 0 0 0.02735,0.511325 1.7987653,2.9453646 0 0 0 0.04761,0.291065 h 3.44771 a 1.7987653,2.9453646 0 0 0 0.04762,-0.291065 1.7987653,2.9453646 0 0 0 0.02735,-0.511325 1.7987653,2.9453646 0 0 0 -0.0031,-0.171313 1.7987653,2.9453646 0 0 0 -0.0091,-0.170753 1.7987653,2.9453646 0 0 0 -0.01516,-0.169446 1.7987653,2.9453646 0 0 0 -0.02125,-0.167763 1.7987653,2.9453646 0 0 0 -0.02702,-0.165523 1.7987653,2.9453646 0 0 0 -0.03295,-0.162719 1.7987653,2.9453646 0 0 0 -0.03855,-0.15917 1.7987653,2.9453646 0 0 0 -0.04432,-0.155248 1.7987653,2.9453646 0 0 0 -0.04959,-0.150763 1.7987653,2.9453646 0 0 0 -0.05486,-0.145906 1.7987653,2.9453646 0 0 0 -0.06014,-0.140301 1.7987653,2.9453646 0 0 0 -0.06491,-0.134324 1.7987653,2.9453646 0 0 0 -0.06953,-0.127971 1.7987653,2.9453646 0 0 0 -0.07398,-0.121246 1.7987653,2.9453646 0 0 0 -0.0781,-0.11396 1.7987653,2.9453646 0 0 0 -0.08205,-0.106113 1.7987653,2.9453646 0 0 0 -0.08584,-0.09827 1.7987653,2.9453646 0 0 0 -0.08897,-0.09005 1.7987653,2.9453646 0 0 0 -0.0921,-0.08127 1.7987653,2.9453646 0 0 0 -0.0949,-0.07249 1.7987653,2.9453646 0 0 0 -0.09721,-0.06315 1.7987653,2.9453646 0 0 0 -0.09935,-0.05399 1.7987653,2.9453646 0 0 0 -0.100996,-0.04428 1.7987653,2.9453646 0 0 0 -0.102479,-0.03475 1.7987653,2.9453646 0 0 0 -0.103468,-0.02485 1.7987653,2.9453646 0 0 0 -0.104291,-0.01476 1.7987653,2.9453646 0 0 0 -0.104621,-0.005 z"
         style="opacity:0.8;fill:#009054;stroke:#00861b;stroke-width:0.369747;fill-opacity:1"
         id="path56" />
      <path
         d="m 71.382206,25.19071 a 5.6418624,8.1472187 0 0 0 -0.979785,0.123507 5.6418624,8.1472187 0 0 0 -0.949813,0.367936 5.6418624,8.1472187 0 0 0 -0.891418,0.599964 5.6418624,8.1472187 0 0 0 -0.805636,0.81442 5.6418624,8.1472187 0 0 0 -0.695048,1.00459 5.6418624,8.1472187 0 0 0 -0.564306,1.163237 5.6418624,8.1472187 0 0 0 -0.415479,1.286743 5.6418624,8.1472187 0 0 0 -0.254765,1.372009 5.6418624,8.1472187 0 0 0 -0.08578,1.414901 5.6418624,8.1472187 0 0 0 0.08578,1.414384 5.6418624,8.1472187 0 0 0 0.149345,0.805119 h 10.81381 a 5.6418624,8.1472187 0 0 0 0.149345,-0.805119 5.6418624,8.1472187 0 0 0 0.08578,-1.414384 5.6418624,8.1472187 0 0 0 -0.0098,-0.473873 5.6418624,8.1472187 0 0 0 -0.02842,-0.472323 5.6418624,8.1472187 0 0 0 -0.04754,-0.468705 5.6418624,8.1472187 0 0 0 -0.06666,-0.464054 5.6418624,8.1472187 0 0 0 -0.08475,-0.457854 5.6418624,8.1472187 0 0 0 -0.103353,-0.450101 5.6418624,8.1472187 0 0 0 -0.120922,-0.440283 5.6418624,8.1472187 0 0 0 -0.13901,-0.429432 5.6418624,8.1472187 0 0 0 -0.155546,-0.417028 5.6418624,8.1472187 0 0 0 -0.172083,-0.403593 5.6418624,8.1472187 0 0 0 -0.188619,-0.38809 5.6418624,8.1472187 0 0 0 -0.203605,-0.371554 5.6418624,8.1472187 0 0 0 -0.218074,-0.353983 5.6418624,8.1472187 0 0 0 -0.232027,-0.33538 5.6418624,8.1472187 0 0 0 -0.244947,-0.315227 5.6418624,8.1472187 0 0 0 -0.257348,-0.293522 5.6418624,8.1472187 0 0 0 -0.269235,-0.271818 5.6418624,8.1472187 0 0 0 -0.279052,-0.24908 5.6418624,8.1472187 0 0 0 -0.288872,-0.224793 5.6418624,8.1472187 0 0 0 -0.297656,-0.200504 5.6418624,8.1472187 0 0 0 -0.304891,-0.174667 5.6418624,8.1472187 0 0 0 -0.311609,-0.149345 5.6418624,8.1472187 0 0 0 -0.316776,-0.122473 5.6418624,8.1472187 0 0 0 -0.321428,-0.09612 5.6418624,8.1472187 0 0 0 -0.324528,-0.06873 5.6418624,8.1472187 0 0 0 -0.327111,-0.04082 5.6418624,8.1472187 0 0 0 -0.328146,-0.01395 z"
         style="opacity:0.6;fill:#62ff8c;stroke:#00861b;stroke-width:1.08909"
         id="path55" />
      <ellipse
         style="opacity:0.8;fill:#ffff00;fill-opacity:1;stroke:#000000;stroke-width:0.921454;stroke-dasharray:none;stroke-opacity:1"
         id="path53"
         cx="71.382225"
         cy="38.508404"
         rx="3.4531398"
         ry="2.9158323" />
      <ellipse
         style="opacity:0.8;fill:#ffff00;fill-opacity:1;stroke:#000000;stroke-width:0.66449;stroke-dasharray:none;stroke-opacity:1"
         id="circle53"
         cx="63.627926"
         cy="38.508404"
         rx="2.4811556"
         ry="2.1103401" />
      <ellipse
         style="opacity:0.8;fill:#ffff00;fill-opacity:1;stroke:#000000;stroke-width:0.66449;stroke-dasharray:none;stroke-opacity:1"
         id="circle54"
         cx="79.126244"
         cy="38.508404"
         rx="2.4811556"
         ry="2.1103401" />
      <path
         d="m 71.382206,32.68431 v 5.17e-4 a 15.169691,6.0478831 0 0 0 -1.979724,0.05116 15.169691,6.0478831 0 0 0 -1.946134,0.154513 15.169691,6.0478831 0 0 0 -1.879472,0.254248 15.169691,6.0478831 0 0 0 -1.77922,0.349849 15.169691,6.0478831 0 0 0 -1.650028,0.439767 15.169691,6.0478831 0 0 0 -1.492416,0.521932 15.169691,6.0478831 0 0 0 -1.307413,0.594279 15.169691,6.0478831 0 0 0 -1.102775,0.657841 15.169691,6.0478831 0 0 0 -0.877983,0.709517 15.169691,6.0478831 0 0 0 -0.637687,0.748792 15.169691,6.0478831 0 0 0 -0.38654,0.77618 15.169691,6.0478831 0 0 0 -0.130224,0.789099 15.169691,6.0478831 0 0 0 0.03462,0.209806 h 30.295308 a 15.169691,6.0478831 0 0 0 0.0016,-0.01654 15.169691,6.0478831 0 0 0 0.0016,-0.01964 15.169691,6.0478831 0 0 0 0.0016,-0.01912 15.169691,6.0478831 0 0 0 0.001,-0.01912 15.169691,6.0478831 0 0 0 0.001,-0.01964 15.169691,6.0478831 0 0 0 5.17e-4,-0.01912 15.169691,6.0478831 0 0 0 0.001,-0.01912 15.169691,6.0478831 0 0 0 5.17e-4,-0.01964 15.169691,6.0478831 0 0 0 0,-0.01912 15.169691,6.0478831 0 0 0 5.17e-4,-0.01912 15.169691,6.0478831 0 0 0 0,-0.01964 15.169691,6.0478831 0 0 0 0,-0.0067 15.169691,6.0478831 0 0 0 0,-0.0067 15.169691,6.0478831 0 0 0 0,-0.0067 15.169691,6.0478831 0 0 0 0,-0.0072 15.169691,6.0478831 0 0 0 0,-0.0067 15.169691,6.0478831 0 0 0 -5.17e-4,-0.0067 15.169691,6.0478831 0 0 0 0,-0.0067 15.169691,6.0478831 0 0 0 0,-0.0067 15.169691,6.0478831 0 0 0 0,-0.0072 15.169691,6.0478831 0 0 0 -5.17e-4,-0.0067 15.169691,6.0478831 0 0 0 0,-0.0067 15.169691,6.0478831 0 0 0 -5.16e-4,-0.0067 15.169691,6.0478831 0 0 0 0,-0.0067 15.169691,6.0478831 0 0 0 0,-0.0067 15.169691,6.0478831 0 0 0 -5.17e-4,-0.0072 15.169691,6.0478831 0 0 0 -5.17e-4,-0.0067 15.169691,6.0478831 0 0 0 0,-0.0067 15.169691,6.0478831 0 0 0 -5.17e-4,-0.0067 15.169691,6.0478831 0 0 0 0,-0.0067 15.169691,6.0478831 0 0 0 -5.16e-4,-0.0072 15.169691,6.0478831 0 0 0 -5.17e-4,-0.0067 15.169691,6.0478831 0 0 0 -5.17e-4,-0.0067 15.169691,6.0478831 0 0 0 -5.17e-4,-0.0067 15.169691,6.0478831 0 0 0 0,-0.0067 15.169691,6.0478831 0 0 0 -5.16e-4,-0.0072 15.169691,6.0478831 0 0 0 -5.17e-4,-0.0067 15.169691,6.0478831 0 0 0 -5.17e-4,-0.0067 15.169691,6.0478831 0 0 0 -5.17e-4,-0.0067 15.169691,6.0478831 0 0 0 -5.17e-4,-0.0067 15.169691,6.0478831 0 0 0 -5.16e-4,-0.0067 15.169691,6.0478831 0 0 0 -5.17e-4,-0.0072 15.169691,6.0478831 0 0 0 -0.001,-0.0067 15.169691,6.0478831 0 0 0 -5.16e-4,-0.0067 15.169691,6.0478831 0 0 0 -5.17e-4,-0.0067 15.169691,6.0478831 0 0 0 -5.17e-4,-0.0067 15.169691,6.0478831 0 0 0 -0.001,-0.0072 15.169691,6.0478831 0 0 0 -5.17e-4,-0.0067 15.169691,6.0478831 0 0 0 -5.17e-4,-0.0067 15.169691,6.0478831 0 0 0 -0.001,-0.0067 15.169691,6.0478831 0 0 0 -5.17e-4,-0.0067 15.169691,6.0478831 0 0 0 -0.001,-0.0067 15.169691,6.0478831 0 0 0 -0.04858,-0.279053 15.169691,6.0478831 0 0 0 -0.08062,-0.276985 A 15.169691,6.0478831 0 0 0 86.293441,37.620959 15.169691,6.0478831 0 0 0 86.149264,37.347591 15.169691,6.0478831 0 0 0 85.973047,37.077323 15.169691,6.0478831 0 0 0 85.765308,36.810156 15.169691,6.0478831 0 0 0 85.528113,36.54764 15.169691,6.0478831 0 0 0 85.259395,36.289775 15.169691,6.0478831 0 0 0 84.961222,36.03656 15.169691,6.0478831 0 0 0 84.634627,35.789547 15.169691,6.0478831 0 0 0 84.27961,35.548735 15.169691,6.0478831 0 0 0 83.897205,35.31464 15.169691,6.0478831 0 0 0 83.487927,35.087781 15.169691,6.0478831 0 0 0 83.052812,34.868673 15.169691,6.0478831 0 0 0 82.592891,34.657833 15.169691,6.0478831 0 0 0 82.1092,34.456295 a 15.169691,6.0478831 0 0 0 -0.507463,-0.19327 15.169691,6.0478831 0 0 0 -0.528649,-0.183451 15.169691,6.0478831 0 0 0 -0.549321,-0.173633 15.169691,6.0478831 0 0 0 -0.568441,-0.163298 15.169691,6.0478831 0 0 0 -0.587044,-0.151928 15.169691,6.0478831 0 0 0 -0.604097,-0.142111 15.169691,6.0478831 0 0 0 -0.620118,-0.130224 15.169691,6.0478831 0 0 0 -0.634586,-0.118339 15.169691,6.0478831 0 0 0 -0.647506,-0.107487 15.169691,6.0478831 0 0 0 -0.658874,-0.09457 15.169691,6.0478831 0 0 0 -0.66921,-0.08268 15.169691,6.0478831 0 0 0 -0.678512,-0.07028 15.169691,6.0478831 0 0 0 -0.685229,-0.05736 15.169691,6.0478831 0 0 0 -0.691948,-0.04496 15.169691,6.0478831 0 0 0 -0.696598,-0.03256 15.169691,6.0478831 0 0 0 -0.699182,-0.01912 15.169691,6.0478831 0 0 0 -0.700216,-0.0067 z"
         style="opacity:1;fill:#9a009a;stroke:#000000;stroke-width:1;stroke-dasharray:none"
         id="path54" />
    </g>
  </g>
</svg>
