<?xml version="1.0" encoding="UTF-8" standalone="no"?>
<!-- Created with Inkscape (http://www.inkscape.org/) -->

<svg
   width="22.947342mm"
   height="15.211437mm"
   viewBox="0 0 22.947342 15.211437"
   version="1.1"
   id="svg1"
   xmlns="http://www.w3.org/2000/svg"
   xmlns:svg="http://www.w3.org/2000/svg">
  <defs
     id="defs1" />
  <path
     d="m 14.131715,0.70330207 c -0.27483,3e-5 -0.549,0.0251 -0.81855,0.0749 -0.26968,0.0498 -0.53345,0.12415 -0.78748,0.22190003 -0.25401,0.0977 -0.49709,0.21829 -0.72571,0.36012 -0.2285,0.1419 -0.44146,0.30432 -0.63576,0.48489 -0.13823,0.13526 -0.26584,0.27956 -0.38182,0.43178 -0.0112,-0.004 -0.0224,-0.008 -0.0336,-0.0127 -0.0936,-0.0325 -0.18842,-0.0618 -0.28428,-0.088 -0.0959,-0.0261 -0.19277,-0.0491 -0.29043,-0.0688 -0.0976,-0.0197 -0.1959097,-0.0362 -0.2947697,-0.0495 -0.0989,-0.0132 -0.19832,-0.0232 -0.29801,-0.0298 -0.0997,-0.007 -0.19955,-0.01 -0.29946,-0.01 -0.27483,3e-5 -0.54901,0.0251 -0.81855,0.0749 -0.26968,0.0498 -0.53345,0.12416 -0.78748,0.2219 -0.25401,0.0977 -0.4971,0.2183 -0.72571,0.36012 -0.22849,0.14179 -0.44144,0.30408 -0.63577,0.48453 -0.1944,0.18056 -0.36924,0.37843 -0.52197,0.59075 -0.15278,0.21233 -0.28274,0.43811 -0.38796,0.67404 -0.10518,0.23587 -0.18516,0.48078 -0.23878,0.73116 -0.002,0.0214 -0.005,0.0429 -0.007,0.0644 -0.0867,-0.005 -0.17356,-0.008 -0.26044,-0.008 -0.27482,-9e-5 -0.549,0.0249 -0.81855,0.0746 -0.26968,0.0498 -0.53346,0.12416 -0.78748,0.2219 -0.25402,0.0977 -0.4971,0.2183 -0.72571,0.36012 -0.22851,0.1419 -0.44146,0.30432 -0.63577,0.48489 -0.1944,0.18056 -0.36924,0.37844 -0.52198,0.59075 -0.15276,0.21221 -0.28271,0.43787 -0.38796,0.67368 -0.10518001,0.23587 -0.18516001,0.48077 -0.23877001,0.73116 -0.0536,0.25047 -0.0806,0.50525 -0.0805,0.76062 -2e-5,0.25526 0.027,0.50991 0.0805,0.76026 0.0536,0.2503899 0.13359,0.4952999 0.23877001,0.7311599 0.10525,0.23581 0.2352,0.46147 0.38796,0.67369 0.15274,0.21231 0.32758,0.41019 0.52198,0.59074 0.19431,0.18058 0.40726,0.343 0.63577,0.4849 0.22861,0.14182 0.47169,0.26245 0.72571,0.36012 0.25402,0.0977 0.5178,0.17207 0.78748,0.22189 0.26954,0.0498 0.54372,0.0749 0.81855,0.0749 0.27494,0 0.54925,-0.0251 0.8189,-0.0749 0.26968,-0.0498 0.53346,-0.12415 0.78749,-0.22189 0.25389,-0.0977 0.49685,-0.21832 0.72535,-0.36012 0.22197,-0.13859 0.42919,-0.29659 0.61878,-0.4718 0.0221,0.0757 0.0467,0.15082 0.0737,0.22517 0.10523,0.23594 0.23518,0.46171 0.38797,0.67404 0.15275,0.2122 0.32759,0.40994 0.52197,0.59039 0.19443,0.18059 0.40749,0.34301 0.63613,0.48489 0.2285,0.14181 0.47145,0.26243 0.7253497,0.36012 0.25403,0.0977 0.51779,0.17207 0.78748,0.2219 0.26967,0.0498 0.54396,0.0749 0.81891,0.0749 0.27483,-3e-5 0.549,-0.0251 0.81855,-0.0749 0.26968,-0.0498 0.53345,-0.12415 0.78748,-0.2219 0.25402,-0.0977 0.49709,-0.21829 0.72571,-0.36012 0.22851,-0.1419 0.44145,-0.30432 0.63576,-0.48489 0.19439,-0.18045 0.36923,-0.37819 0.52198,-0.59039 0.15279,-0.21233 0.28273,-0.4381 0.38796,-0.67404 0.006,-0.0174 0.0114,-0.0349 0.017,-0.0524 0.007,0.006 0.0149,0.0114 0.0224,0.0171 0.22862,0.14182 0.47169,0.26244 0.72571,0.36012 0.25403,0.0977 0.5178,0.17207 0.78748,0.22189 0.26955,0.0498 0.54372,0.0749 0.81855,0.0749 0.27495,0 0.54925,-0.0251 0.81891,-0.0749 0.26968,-0.0498 0.53345,-0.12415 0.78748,-0.22189 0.2539,-0.0977 0.49685,-0.21832 0.72535,-0.36012 0.22862,-0.14178 0.44169,-0.30407 0.63613,-0.48453 0.1944,-0.18056 0.36924,-0.37843 0.52198,-0.59075 0.15278,-0.21233 0.28273,-0.43811 0.38796,-0.67405 0.10518,-0.23586 0.18516,-0.4807599 0.23877,-0.7311599 0.0536,-0.25035 0.0806,-0.505 0.0805,-0.76025 7e-5,-0.0927 -0.003,-0.18543 -0.0105,-0.27792 -0.007,-0.0926 -0.0179,-0.18493 -0.0322,-0.27682 -0.0142,-0.0919 -0.0319,-0.18322 -0.0531,-0.27391 -0.0213,-0.0906 -0.0462,-0.18055 -0.0744,-0.26955 -0.028,-0.089 -0.0595,-0.17713 -0.0943,-0.26409 -0.035,-0.0868 -0.0733,-0.17251 -0.11487,-0.25681 -0.0415,-0.0844 -0.0862,-0.16739 -0.13402,-0.24881 -0.0479,-0.0814 -0.0988,-0.16129 -0.1528,-0.23936 -0.054,-0.078 -0.111,-0.15421 -0.17086,-0.22844 -0.0599,-0.0743 -0.12271,-0.14664 -0.1882,-0.2168 -0.0654,-0.0701 -0.13348,-0.13808 -0.2041,-0.20371 -0.0706,-0.0656 -0.14377,-0.12879 -0.21926,-0.18952 -0.0755,-0.0608 -0.15336,-0.119 -0.23336,-0.1746 -0.0799,-0.0556 -0.16199,-0.10847 -0.24599,-0.1586 -0.084,-0.0501 -0.16992,-0.0974 -0.25756,-0.14187 -0.0877,-0.0445 -0.17712,-0.0862 -0.26803,-0.12477 -0.0908,-0.0384 -0.18314,-0.0739 -0.27671,-0.10622 -0.0936,-0.0325 -0.18842,-0.0618 -0.28428,-0.088 -0.0959,-0.0261 -0.19277,-0.0491 -0.29043,-0.0688 -0.0976,-0.0198 -0.19591,-0.0362 -0.29477,-0.0495 -0.0989,-0.0132 -0.19832,-0.0232 -0.29801,-0.0298 -0.0184,-7e-4 -0.0368,-0.001 -0.0553,-0.002 0.0172,-0.11174 0.0291,-0.22413 0.0358,-0.33684 -5e-5,-0.0927 -0.004,-0.18543 -0.0108,-0.27791 -0.007,-0.0926 -0.0176,-0.18493 -0.0318,-0.27682 -0.0142,-0.0917 -0.0319,-0.18299 -0.0531,-0.27355 -0.0213,-0.0906 -0.0462,-0.18055 -0.0744,-0.26955 -0.0281,-0.0891 -0.0597,-0.17713 -0.0946,-0.26409 -0.0349,-0.087 -0.073,-0.17275 -0.11451,-0.25718 -0.0415,-0.0844 -0.0862,-0.16738 -0.13402,-0.24881 -0.0479,-0.0815 -0.0988,-0.16128 -0.1528,-0.23935 -0.054,-0.078 -0.111,-0.15421 -0.17086,-0.22845 -0.0599,-0.0743 -0.12271,-0.14664 -0.1882,-0.2168 -0.0654,-0.07 -0.13348,-0.13783 -0.2041,-0.20334 -0.0706,-0.0657 -0.14376,-0.12903 -0.21926,-0.18988 -0.0755,-0.0608 -0.15336,-0.119 -0.23336,-0.17461 -0.0799,-0.0556 -0.16199,-0.10847 -0.24599,-0.1586 -0.084,-0.0501 -0.16992,-0.0974 -0.25756,-0.14186 -0.0877,-0.0444 -0.17713,-0.0859 -0.26804,-0.12441 -0.0908,-0.0386 -0.18313,-0.0741 -0.2767,-0.10658003 -0.0936,-0.0325 -0.18843,-0.0618 -0.28429,-0.088 -0.0959,-0.0261 -0.19277,-0.0491 -0.29042,-0.0688 -0.0976,-0.0197 -0.19591,-0.0362 -0.29477,-0.0495 -0.0989,-0.0131 -0.19833,-0.0229 -0.29801,-0.0295 -0.0997,-0.007 -0.19955,-0.0101 -0.29946,-0.0102 z"
     style="fill:#ffffff;stroke:#000000;stroke-width:1.40293"
     id="cloud3" />
</svg>
