<?xml version="1.0" encoding="UTF-8" standalone="no"?>
<!-- Created with Inkscape (http://www.inkscape.org/) -->

<svg
   width="31.339319mm"
   height="17.238798mm"
   viewBox="0 0 31.339319 17.238798"
   version="1.1"
   id="svg1"
   xmlns="http://www.w3.org/2000/svg"
   xmlns:svg="http://www.w3.org/2000/svg">
  <defs
     id="defs1" />
  <g
     id="uap"
     transform="translate(-55.712569,-24.646165)">
    <path
       d="m 71.382206,29.558556 a 1.7987653,2.9453646 0 0 0 -0.31238,0.04465 1.7987653,2.9453646 0 0 0 -0.302824,0.133015 1.7987653,2.9453646 0 0 0 -0.284206,0.216898 1.7987653,2.9453646 0 0 0 -0.256856,0.294427 1.7987653,2.9453646 0 0 0 -0.221599,0.363177 1.7987653,2.9453646 0 0 0 -0.179915,0.420531 1.7987653,2.9453646 0 0 0 -0.132465,0.465181 1.7987653,2.9453646 0 0 0 -0.08123,0.496005 1.7987653,2.9453646 0 0 0 -0.02735,0.511512 1.7987653,2.9453646 0 0 0 0.02735,0.511325 1.7987653,2.9453646 0 0 0 0.04761,0.291065 h 3.44771 a 1.7987653,2.9453646 0 0 0 0.04762,-0.291065 1.7987653,2.9453646 0 0 0 0.02735,-0.511325 1.7987653,2.9453646 0 0 0 -0.0031,-0.171313 1.7987653,2.9453646 0 0 0 -0.0091,-0.170753 1.7987653,2.9453646 0 0 0 -0.01516,-0.169446 1.7987653,2.9453646 0 0 0 -0.02125,-0.167763 1.7987653,2.9453646 0 0 0 -0.02702,-0.165523 1.7987653,2.9453646 0 0 0 -0.03295,-0.162719 1.7987653,2.9453646 0 0 0 -0.03855,-0.15917 1.7987653,2.9453646 0 0 0 -0.04432,-0.155248 1.7987653,2.9453646 0 0 0 -0.04959,-0.150763 1.7987653,2.9453646 0 0 0 -0.05486,-0.145906 1.7987653,2.9453646 0 0 0 -0.06014,-0.140301 1.7987653,2.9453646 0 0 0 -0.06491,-0.134324 1.7987653,2.9453646 0 0 0 -0.06953,-0.127971 1.7987653,2.9453646 0 0 0 -0.07398,-0.121246 1.7987653,2.9453646 0 0 0 -0.0781,-0.11396 1.7987653,2.9453646 0 0 0 -0.08205,-0.106113 1.7987653,2.9453646 0 0 0 -0.08584,-0.09827 1.7987653,2.9453646 0 0 0 -0.08897,-0.09005 1.7987653,2.9453646 0 0 0 -0.0921,-0.08127 1.7987653,2.9453646 0 0 0 -0.0949,-0.07249 1.7987653,2.9453646 0 0 0 -0.09721,-0.06315 1.7987653,2.9453646 0 0 0 -0.09935,-0.05399 1.7987653,2.9453646 0 0 0 -0.100996,-0.04428 1.7987653,2.9453646 0 0 0 -0.102479,-0.03475 1.7987653,2.9453646 0 0 0 -0.103468,-0.02485 1.7987653,2.9453646 0 0 0 -0.104291,-0.01476 1.7987653,2.9453646 0 0 0 -0.104621,-0.005 z"
       style="opacity:0.8;fill:#009054;fill-opacity:1;stroke:#00861b;stroke-width:0.369747"
       id="path56" />
    <path
       d="m 71.382206,25.19071 a 5.6418624,8.1472187 0 0 0 -0.979785,0.123507 5.6418624,8.1472187 0 0 0 -0.949813,0.367936 5.6418624,8.1472187 0 0 0 -0.891418,0.599964 5.6418624,8.1472187 0 0 0 -0.805636,0.81442 5.6418624,8.1472187 0 0 0 -0.695048,1.00459 5.6418624,8.1472187 0 0 0 -0.564306,1.163237 5.6418624,8.1472187 0 0 0 -0.415479,1.286743 5.6418624,8.1472187 0 0 0 -0.254765,1.372009 5.6418624,8.1472187 0 0 0 -0.08578,1.414901 5.6418624,8.1472187 0 0 0 0.08578,1.414384 5.6418624,8.1472187 0 0 0 0.149345,0.805119 h 10.81381 a 5.6418624,8.1472187 0 0 0 0.149345,-0.805119 5.6418624,8.1472187 0 0 0 0.08578,-1.414384 5.6418624,8.1472187 0 0 0 -0.0098,-0.473873 5.6418624,8.1472187 0 0 0 -0.02842,-0.472323 5.6418624,8.1472187 0 0 0 -0.04754,-0.468705 5.6418624,8.1472187 0 0 0 -0.06666,-0.464054 5.6418624,8.1472187 0 0 0 -0.08475,-0.457854 5.6418624,8.1472187 0 0 0 -0.103353,-0.450101 5.6418624,8.1472187 0 0 0 -0.120922,-0.440283 5.6418624,8.1472187 0 0 0 -0.13901,-0.429432 5.6418624,8.1472187 0 0 0 -0.155546,-0.417028 5.6418624,8.1472187 0 0 0 -0.172083,-0.403593 5.6418624,8.1472187 0 0 0 -0.188619,-0.38809 5.6418624,8.1472187 0 0 0 -0.203605,-0.371554 5.6418624,8.1472187 0 0 0 -0.218074,-0.353983 5.6418624,8.1472187 0 0 0 -0.232027,-0.33538 5.6418624,8.1472187 0 0 0 -0.244947,-0.315227 5.6418624,8.1472187 0 0 0 -0.257348,-0.293522 5.6418624,8.1472187 0 0 0 -0.269235,-0.271818 5.6418624,8.1472187 0 0 0 -0.279052,-0.24908 5.6418624,8.1472187 0 0 0 -0.288872,-0.224793 5.6418624,8.1472187 0 0 0 -0.297656,-0.200504 5.6418624,8.1472187 0 0 0 -0.304891,-0.174667 5.6418624,8.1472187 0 0 0 -0.311609,-0.149345 5.6418624,8.1472187 0 0 0 -0.316776,-0.122473 5.6418624,8.1472187 0 0 0 -0.321428,-0.09612 5.6418624,8.1472187 0 0 0 -0.324528,-0.06873 5.6418624,8.1472187 0 0 0 -0.327111,-0.04082 5.6418624,8.1472187 0 0 0 -0.328146,-0.01395 z"
       style="opacity:0.6;fill:#62ff8c;stroke:#00861b;stroke-width:1.08909"
       id="path55" />
    <ellipse
       style="opacity:0.8;fill:#ffff00;fill-opacity:1;stroke:#000000;stroke-width:0.921454;stroke-dasharray:none;stroke-opacity:1"
       id="path53"
       cx="71.382225"
       cy="38.508404"
       rx="3.4531398"
       ry="2.9158323" />
    <ellipse
       style="opacity:0.8;fill:#ffff00;fill-opacity:1;stroke:#000000;stroke-width:0.66449;stroke-dasharray:none;stroke-opacity:1"
       id="circle53"
       cx="63.627926"
       cy="38.508404"
       rx="2.4811556"
       ry="2.1103401" />
    <ellipse
       style="opacity:0.8;fill:#ffff00;fill-opacity:1;stroke:#000000;stroke-width:0.66449;stroke-dasharray:none;stroke-opacity:1"
       id="circle54"
       cx="79.126244"
       cy="38.508404"
       rx="2.4811556"
       ry="2.1103401" />
    <path
       d="m 71.382206,32.68431 v 5.17e-4 a 15.169691,6.0478831 0 0 0 -1.979724,0.05116 15.169691,6.0478831 0 0 0 -1.946134,0.154513 15.169691,6.0478831 0 0 0 -1.879472,0.254248 15.169691,6.0478831 0 0 0 -1.77922,0.349849 15.169691,6.0478831 0 0 0 -1.650028,0.439767 15.169691,6.0478831 0 0 0 -1.492416,0.521932 15.169691,6.0478831 0 0 0 -1.307413,0.594279 15.169691,6.0478831 0 0 0 -1.102775,0.657841 15.169691,6.0478831 0 0 0 -0.877983,0.709517 15.169691,6.0478831 0 0 0 -0.637687,0.748792 15.169691,6.0478831 0 0 0 -0.38654,0.77618 15.169691,6.0478831 0 0 0 -0.130224,0.789099 15.169691,6.0478831 0 0 0 0.03462,0.209806 h 30.295308 a 15.169691,6.0478831 0 0 0 0.0016,-0.01654 15.169691,6.0478831 0 0 0 0.0016,-0.01964 15.169691,6.0478831 0 0 0 0.0016,-0.01912 15.169691,6.0478831 0 0 0 10e-4,-0.01912 15.169691,6.0478831 0 0 0 0.001,-0.01964 15.169691,6.0478831 0 0 0 5.17e-4,-0.01912 15.169691,6.0478831 0 0 0 0.001,-0.01912 15.169691,6.0478831 0 0 0 5.17e-4,-0.01964 15.169691,6.0478831 0 0 0 0,-0.01912 15.169691,6.0478831 0 0 0 5.17e-4,-0.01912 15.169691,6.0478831 0 0 0 0,-0.01964 15.169691,6.0478831 0 0 0 0,-0.0067 15.169691,6.0478831 0 0 0 0,-0.0067 15.169691,6.0478831 0 0 0 0,-0.0067 15.169691,6.0478831 0 0 0 0,-0.0072 15.169691,6.0478831 0 0 0 0,-0.0067 15.169691,6.0478831 0 0 0 -5.17e-4,-0.0067 15.169691,6.0478831 0 0 0 0,-0.0067 15.169691,6.0478831 0 0 0 0,-0.0067 15.169691,6.0478831 0 0 0 0,-0.0072 15.169691,6.0478831 0 0 0 -5.17e-4,-0.0067 15.169691,6.0478831 0 0 0 0,-0.0067 15.169691,6.0478831 0 0 0 -5.16e-4,-0.0067 15.169691,6.0478831 0 0 0 0,-0.0067 15.169691,6.0478831 0 0 0 0,-0.0067 15.169691,6.0478831 0 0 0 -5.17e-4,-0.0072 15.169691,6.0478831 0 0 0 -5.17e-4,-0.0067 15.169691,6.0478831 0 0 0 0,-0.0067 15.169691,6.0478831 0 0 0 -5.17e-4,-0.0067 15.169691,6.0478831 0 0 0 0,-0.0067 15.169691,6.0478831 0 0 0 -5.16e-4,-0.0072 15.169691,6.0478831 0 0 0 -5.17e-4,-0.0067 15.169691,6.0478831 0 0 0 -5.17e-4,-0.0067 15.169691,6.0478831 0 0 0 -5.17e-4,-0.0067 15.169691,6.0478831 0 0 0 0,-0.0067 15.169691,6.0478831 0 0 0 -5.16e-4,-0.0072 15.169691,6.0478831 0 0 0 -5.17e-4,-0.0067 15.169691,6.0478831 0 0 0 -5.17e-4,-0.0067 15.169691,6.0478831 0 0 0 -5.17e-4,-0.0067 15.169691,6.0478831 0 0 0 -5.17e-4,-0.0067 15.169691,6.0478831 0 0 0 -5.16e-4,-0.0067 15.169691,6.0478831 0 0 0 -5.17e-4,-0.0072 15.169691,6.0478831 0 0 0 -10e-4,-0.0067 15.169691,6.0478831 0 0 0 -5.16e-4,-0.0067 15.169691,6.0478831 0 0 0 -5.17e-4,-0.0067 15.169691,6.0478831 0 0 0 -5.17e-4,-0.0067 15.169691,6.0478831 0 0 0 -10e-4,-0.0072 15.169691,6.0478831 0 0 0 -5.17e-4,-0.0067 15.169691,6.0478831 0 0 0 -5.17e-4,-0.0067 15.169691,6.0478831 0 0 0 -0.001,-0.0067 15.169691,6.0478831 0 0 0 -5.17e-4,-0.0067 15.169691,6.0478831 0 0 0 -0.001,-0.0067 15.169691,6.0478831 0 0 0 -0.04858,-0.279053 15.169691,6.0478831 0 0 0 -0.08062,-0.276985 A 15.169691,6.0478831 0 0 0 86.293441,37.620959 15.169691,6.0478831 0 0 0 86.149264,37.347591 15.169691,6.0478831 0 0 0 85.973047,37.077323 15.169691,6.0478831 0 0 0 85.765308,36.810156 15.169691,6.0478831 0 0 0 85.528113,36.54764 15.169691,6.0478831 0 0 0 85.259395,36.289775 15.169691,6.0478831 0 0 0 84.961222,36.03656 15.169691,6.0478831 0 0 0 84.634627,35.789547 15.169691,6.0478831 0 0 0 84.27961,35.548735 15.169691,6.0478831 0 0 0 83.897205,35.31464 15.169691,6.0478831 0 0 0 83.487927,35.087781 15.169691,6.0478831 0 0 0 83.052812,34.868673 15.169691,6.0478831 0 0 0 82.592891,34.657833 15.169691,6.0478831 0 0 0 82.1092,34.456295 a 15.169691,6.0478831 0 0 0 -0.507463,-0.19327 15.169691,6.0478831 0 0 0 -0.528649,-0.183451 15.169691,6.0478831 0 0 0 -0.549321,-0.173633 15.169691,6.0478831 0 0 0 -0.568441,-0.163298 15.169691,6.0478831 0 0 0 -0.587044,-0.151928 15.169691,6.0478831 0 0 0 -0.604097,-0.142111 15.169691,6.0478831 0 0 0 -0.620118,-0.130224 15.169691,6.0478831 0 0 0 -0.634586,-0.118339 15.169691,6.0478831 0 0 0 -0.647506,-0.107487 15.169691,6.0478831 0 0 0 -0.658874,-0.09457 15.169691,6.0478831 0 0 0 -0.66921,-0.08268 15.169691,6.0478831 0 0 0 -0.678512,-0.07028 15.169691,6.0478831 0 0 0 -0.685229,-0.05736 15.169691,6.0478831 0 0 0 -0.691948,-0.04496 15.169691,6.0478831 0 0 0 -0.696598,-0.03256 15.169691,6.0478831 0 0 0 -0.699182,-0.01912 15.169691,6.0478831 0 0 0 -0.700216,-0.0067 z"
       style="opacity:1;fill:#9a009a;stroke:#000000;stroke-width:1;stroke-dasharray:none"
       id="path54" />
  </g>
</svg>
