<svg 
        className='svgLogo'
        width="20mm" 
        height="20mm" 
        version="1.1" 
        viewBox="0 0 154.04 142.47" 
        xmlns="http://www.w3.org/2000/svg">
       
        <path d="m54.327 0.91461a53.412 29.815 0 0 0-6.9716 0.25512 53.412 29.815 0 0 0-6.8526 0.76069 53.412 29.815 0 0 0-6.6156 1.2539 53.412 29.815 0 0 0-6.2664 1.7248 53.412 29.815 0 0 0-5.8093 2.1667 53.412 29.815 0 0 0-5.2528 2.5719 53.412 29.815 0 0 0-4.6065 2.932 53.412 29.815 0 0 0-3.8817 3.2425 53.412 29.815 0 0 0-3.09 3.4981 53.412 29.815 0 0 0-2.246 3.6928 53.412 29.815 0 0 0-1.3628 3.8252 53.412 29.815 0 0 0-0.45706 3.8915 53.412 29.815 0 0 0 0.45706 3.892 53.412 29.815 0 0 0 1.3628 3.8252 53.412 29.815 0 0 0 2.246 3.6928 53.412 29.815 0 0 0 3.09 3.4976 53.412 29.815 0 0 0 3.8817 3.243 53.412 29.815 0 0 0 4.6065 2.932 53.412 29.815 0 0 0 5.2528 2.5714 53.412 29.815 0 0 0 5.8093 2.1667 53.412 29.815 0 0 0 6.2664 1.7252 53.412 29.815 0 0 0 6.6156 1.2534 53.412 29.815 0 0 0 6.8526 0.7612 53.412 29.815 0 0 0 6.9716 0.25512 53.412 29.815 0 0 0 6.9719-0.25512 53.412 29.815 0 0 0 6.8525-0.7612 53.412 29.815 0 0 0 6.6156-1.2534 53.412 29.815 0 0 0 6.2664-1.7252 53.412 29.815 0 0 0 5.8089-2.1667 53.412 29.815 0 0 0 5.2533-2.5714 53.412 29.815 0 0 0 4.6065-2.932 53.412 29.815 0 0 0 3.8817-3.243 53.412 29.815 0 0 0 3.09-3.4976 53.412 29.815 0 0 0 2.246-3.6928 53.412 29.815 0 0 0 1.3628-3.8252 53.412 29.815 0 0 0 0.45705-3.892 53.412 29.815 0 0 0-0.051-1.3004 53.412 29.815 0 0 0-0.15249-1.2978 53.412 29.815 0 0 0-0.2536-1.2932 53.412 29.815 0 0 0-0.35428-1.286 53.412 29.815 0 0 0-0.45497-1.2756 53.412 29.815 0 0 0-0.55357-1.2637 53.412 29.815 0 0 0-0.65217-1.2487 53.412 29.815 0 0 0-0.74908-1.2322 53.412 29.815 0 0 0-0.84477-1.2119 53.412 29.815 0 0 0-0.9383-1.1907 53.412 29.815 0 0 0-1.0306-1.1669 53.412 29.815 0 0 0-1.121-1.1405 53.412 29.815 0 0 0-1.2091-1.1121 53.412 29.815 0 0 0-1.2947-1.0816 53.412 29.815 0 0 0-1.3779-1.0489 53.412 29.815 0 0 0-1.4589-1.0148 53.412 29.815 0 0 0-1.5362-0.97804 53.412 29.815 0 0 0-1.6114-0.93922 53.412 29.815 0 0 0-1.6837-0.89989 53.412 29.815 0 0 0-1.7518-0.85746 53.412 29.815 0 0 0-1.8178-0.81451 53.412 29.815 0 0 0-1.8792-0.76897 53.412 29.815 0 0 0-1.9377-0.72291 53.412 29.815 0 0 0-1.992-0.67479 53.412 29.815 0 0 0-2.0434-0.62563 53.412 29.815 0 0 0-2.0898-0.57543 53.412 29.815 0 0 0-2.1332-0.52369 53.412 29.815 0 0 0-2.1716-0.47143 53.412 29.815 0 0 0-2.2068-0.41812 53.412 29.815 0 0 0-2.2373-0.3643 53.412 29.815 0 0 0-2.264-0.30894 53.412 29.815 0 0 0-2.2853-0.25408 53.412 29.815 0 0 0-2.3033-0.19768 53.412 29.815 0 0 0-2.3166-0.14179 53.412 29.815 0 0 0-2.3254-0.08487 53.412 29.815 0 0 0-2.33-0.02846zm0.6271 7.4967a41.717 21.076 0 0 1 2.0471 0.02536 41.717 21.076 0 0 1 2.0421 0.07607 41.717 21.076 0 0 1 2.0321 0.12627 41.717 21.076 0 0 1 2.0175 0.17698 41.717 21.076 0 0 1 1.9978 0.22666 41.717 21.076 0 0 1 1.9732 0.27582 41.717 21.076 0 0 1 1.9443 0.32446 41.717 21.076 0 0 1 1.9106 0.37259 41.717 21.076 0 0 1 1.8717 0.41916 41.717 21.076 0 0 1 1.829 0.46521 41.717 21.076 0 0 1 1.7815 0.50971 41.717 21.076 0 0 1 1.7301 0.5537 41.717 21.076 0 0 1 1.6741 0.59561 41.717 21.076 0 0 1 1.6144 0.6365 41.717 21.076 0 0 1 1.5504 0.67531 41.717 21.076 0 0 1 1.4832 0.7136 41.717 21.076 0 0 1 1.4117 0.74931 41.717 21.076 0 0 1 1.3374 0.78295 41.717 21.076 0 0 1 1.26 0.81555 41.717 21.076 0 0 1 1.179 0.84608 41.717 21.076 0 0 1 1.0954 0.87402 41.717 21.076 0 0 1 1.0094 0.89989 41.717 21.076 0 0 1 0.92033 0.92421 41.717 21.076 0 0 1 0.82972 0.94544 41.717 21.076 0 0 1 0.73697 0.9651 41.717 21.076 0 0 1 0.64257 0.98217 41.717 21.076 0 0 1 0.54604 0.99718 41.717 21.076 0 0 1 0.4487 1.0096 41.717 21.076 0 0 1 0.34969 1.0189 41.717 21.076 0 0 1 0.25067 1.0266 41.717 21.076 0 0 1 0.15082 1.0318 41.717 21.076 0 0 1 0.0501 1.0339 41.717 21.076 0 0 1-0.42448 2.9998 41.717 21.076 0 0 1-1.2655 2.9382 41.717 21.076 0 0 1-2.0798 2.8177 41.717 21.076 0 0 1-2.8527 2.6391 41.717 21.076 0 0 1-3.567 2.4073 41.717 21.076 0 0 1-4.2088 2.1263 41.717 21.076 0 0 1-4.7652 1.8019 41.717 21.076 0 0 1-5.224 1.4412 41.717 21.076 0 0 1-5.577 1.051 41.717 21.076 0 0 1-5.8159 0.63908 41.717 21.076 0 0 1-5.9371 0.21476 41.717 21.076 0 0 1-5.9371-0.21476 41.717 21.076 0 0 1-5.816-0.63908 41.717 21.076 0 0 1-5.577-1.051 41.717 21.076 0 0 1-5.224-1.4412 41.717 21.076 0 0 1-4.7649-1.8019 41.717 21.076 0 0 1-4.2092-2.1263 41.717 21.076 0 0 1-3.567-2.4073 41.717 21.076 0 0 1-2.8522-2.6391 41.717 21.076 0 0 1-2.0801-2.8177 41.717 21.076 0 0 1-1.2655-2.9382 41.717 21.076 0 0 1-0.42447-2.9998 41.717 21.076 0 0 1 0.42447-2.9993 41.717 21.076 0 0 1 1.2655-2.9382 41.717 21.076 0 0 1 2.0801-2.8176 41.717 21.076 0 0 1 2.8522-2.6391 41.717 21.076 0 0 1 3.567-2.4073 41.717 21.076 0 0 1 4.2092-2.1263 41.717 21.076 0 0 1 4.7649-1.8024 41.717 21.076 0 0 1 5.224-1.4412 41.717 21.076 0 0 1 5.577-1.051 41.717 21.076 0 0 1 5.816-0.63908 41.717 21.076 0 0 1 5.9371-0.21423z" 
            fill="white" 
            opacity="1" 
            stroke="#666" 
            stroke-width="2"
        />
        <path d="m107.78 42.192c-1.7965 2.8275-3.5404 5.5841-5.1138 6.9968-1.5734 1.4127-3.056 2.2857-6.1062 3.9056v40.465l0.0548 15.59c4.2e-4 0.17286-0.01 0.23907 8e-3 0.38303 8e-4 9e-3 2e-3 0.0176 3e-3 0.0264 8.1e-4 9e-3 2e-3 0.0177 3e-3 0.0263 8.1e-4 9e-3 2e-3 0.0179 3e-3 0.0269 7e-4 9e-3 2e-3 0.0176 3e-3 0.0264 8.1e-4 9e-3 2e-3 0.0174 3e-3 0.0264 3e-3 0.0287-1.4e-4 -3e-3 5e-3 0.0528 7e-4 9e-3 2e-3 0.0179 3e-3 0.0269 7e-4 9e-3 2e-3 0.0177 3e-3 0.0263 2e-3 0.0177 3e-3 0.0355 4e-3 0.0533 2e-3 0.0179 3e-3 0.0359 4e-3 0.0538 2e-3 0.0194 2e-3 0.0309 4e-3 0.0528 8.1e-4 0.018 4e-3 0.0532 4e-3 0.0533 4.3e-4 9e-3 8.1e-4 0.0175 2e-3 0.0263 4.4e-4 9e-3 8.1e-4 0.0175 2e-3 0.0264 4e-3 0.0489 3e-3 0.0705 5e-3 0.10624 2.9e-4 9e-3 6.2e-4 0.0176 8.1e-4 0.0264 4.3e-4 9e-3 8.1e-4 0.0179 2e-3 0.0269 2.8e-4 9e-3 6.1e-4 0.0176 8e-4 0.0264 2.9e-4 9e-3 6.2e-4 0.018 8.1e-4 0.0269 1.6e-4 9e-3 2.9e-4 0.0175 4.2e-4 0.0264 2.9e-4 9e-3 6.2e-4 0.0184 8.1e-4 0.0274 3e-4 9e-3 6.4e-4 0.0175 8.1e-4 0.0264 1.5e-4 9e-3 2.9e-4 0.0177 4.1e-4 0.0264 1.6e-4 9e-3 2.9e-4 0.0176 4.2e-4 0.0264 1.5e-4 9e-3 2.9e-4 0.0179 4.3e-4 0.0269s2.8e-4 0.0175 4.1e-4 0.0263c1.5e-4 9e-3 2.9e-4 0.0175 4.1e-4 0.0264 1e-5 9e-3 1e-5 0.0175 0 0.0264 1.6e-4 9e-3 2.9e-4 0.0179 4.3e-4 0.0269 1e-5 9e-3 1e-5 0.0177 0 0.0264 1e-5 9e-3 1e-5 0.0174 0 0.0264-5e-5 0.0257-1.9e-4 0.0513-4.3e-4 0.0771-1.8e-4 0.0257-5.1e-4 0.0513-8e-4 0.0772-3.3e-4 0.0257-8.1e-4 0.0513-2e-3 0.0771-6.1e-4 0.0258-2e-3 0.0517-3e-3 0.0777-7.5e-4 0.0257-2e-3 0.0513-3e-3 0.0771-8e-4 0.0257-2e-3 0.0513-4e-3 0.0772-8.1e-4 0.0217-3e-3 0.0434-4e-3 0.0651l-4.2e-4 0.0119c-2e-3 0.0257-3e-3 0.0513-4e-3 0.0772-2e-3 0.0257-4e-3 0.0513-5e-3 0.0771-2e-3 0.0257-4e-3 0.0513-5e-3 0.0771-2e-3 0.0257-4e-3 0.0513-5e-3 0.0771-2e-3 0.0257-4e-3 0.0513-6e-3 0.0771-3e-3 0.0257-5e-3 0.0513-7e-3 0.0771-3e-3 0.0257-5e-3 0.0513-7e-3 0.0771-3e-3 0.0257-5e-3 0.0513-8e-3 0.0772-4e-3 0.0257-5e-3 0.0513-9e-3 0.0771-4e-3 0.0257-5e-3 0.0513-9e-3 0.077s-6e-3 0.0513-0.01 0.0771c-4e-3 0.0257-6e-3 0.0513-0.01 0.0771-4e-3 0.0255-7e-3 0.051-0.0108 0.0766-4e-3 0.0257-8e-3 0.0513-0.0117 0.0771-4e-3 0.0257-8e-3 0.0513-0.0122 0.0771-4e-3 0.0255-8e-3 0.051-0.0125 0.0766-4e-3 0.0257-8e-3 0.0513-0.013 0.0772-5e-3 0.0257-9e-3 0.0513-0.0137 0.0771-5e-3 0.0255-9e-3 0.051-0.0143 0.0766-5e-3 0.0255-0.01 0.051-0.0146 0.0767-5e-3 0.0257-0.0102 0.0513-0.0154 0.0771-5e-3 0.0255-0.0105 0.0515-0.0159 0.0771-5e-3 0.0255-0.0111 0.051-0.0167 0.0766-5e-3 0.0257-0.0111 0.0513-0.0167 0.0772-5e-3 0.0255-0.0116 0.051-0.0175 0.0767-5e-3 0.0255-0.0122 0.051-0.0183 0.0766-5e-3 0.0255-0.0122 0.051-0.0183 0.0767-6e-3 0.0255-0.013 0.051-0.0196 0.0767-6e-3 0.0255-0.013 0.051-0.0196 0.0766-6e-3 0.0255-0.0136 0.051-0.0204 0.0765-7e-3 0.0253-0.0138 0.0511-0.0209 0.0767-7e-3 0.0255-0.0142 0.051-0.0213 0.0766-0.14139 0.49669-0.31786 0.99049-0.52892 1.4805-0.21103 0.49001-0.45668 0.97627-0.73654 1.4577-0.27979 0.48152-0.5936 0.9573-0.94049 1.4272-0.34685 0.46992-0.72672 0.93397-1.1393 1.3904-0.41263 0.45645-0.8574 0.90479-1.3331 1.3449-0.47575 0.44014-0.98243 0.87207-1.5195 1.2942-0.53706 0.42212-1.1038 0.83426-1.6987 1.2358-0.59488 0.40147-1.2179 0.79232-1.8684 1.1716-0.65046 0.37923-1.3273 0.74605-2.0292 1.1007-0.70192 0.35461-1.4289 0.69703-2.1796 1.0256-0.75074 0.32858-1.5244 0.64337-2.3192 0.94388-0.79472 0.30049-1.6104 0.58671-2.4462 0.85797-0.83558 0.27132-1.6898 0.52708-2.561 0.76743-0.87122 0.24033-1.7595 0.46528-2.663 0.67375-0.90354 0.20849-1.8214 0.40016-2.7516 0.57543-0.93005 0.17528-1.8724 0.33417-2.8254 0.47556-0.95301 0.14136-1.9157 0.26497-2.8856 0.37156-0.96999 0.10657-1.9472 0.19615-2.9303 0.26753-0.98315 0.0715-1.9711 0.12512-2.9613 0.16094-0.99014 0.0358-1.9826 0.0537-2.9759 0.0537-0.99332-3e-5 -1.9862-0.018-2.9763-0.0537-0.99014-0.0358-1.9777-0.0895-2.9609-0.16094-0.98315-0.0713-1.9609-0.16096-2.9308-0.26753-0.96999-0.10659-1.9322-0.2302-2.8853-0.37156-0.9531-0.14139-1.8958-0.30028-2.8259-0.47556-0.93014-0.17527-1.8476-0.36694-2.7511-0.57543-0.90351-0.20847-1.7917-0.43342-2.663-0.67375-0.87122-0.24035-1.7255-0.49611-2.561-0.76743-0.83558-0.27126-1.6515-0.55748-2.4462-0.85797-0.79465-0.30051-1.568-0.6153-2.3187-0.94388-0.75074-0.32861-1.478-0.67103-2.18-1.0256-0.70198-0.35461-1.3787-0.72142-2.0292-1.1007-0.65047-0.37926-1.2738-0.77011-1.8687-1.1716-0.59488-0.40147-1.1613-0.81358-1.6983-1.2358-0.53695-0.42215-1.0438-0.85408-1.5195-1.2942-0.47567-0.44013-0.92015-0.88847-1.3327-1.3449-0.41265-0.4565-0.7928-0.92055-1.1397-1.3904-0.34691-0.46989-0.66059-0.94567-0.94039-1.4272-0.27988-0.48146-0.52551-0.96772-0.73656-1.4577-0.21105-0.49002-0.3875-0.98382-0.52891-1.4805-0.10929-0.41783-0.19369-0.83726-0.25318-1.2575-0.0595-0.42022-0.09408-0.84121-0.10361-1.2627-0.02617-0.15978-0.04874-0.31969-0.06769-0.47971 0.02402-0.21671 0.05466-0.4332 0.09192-0.64943v-55.346c-0.69911-0.39766-1.378-0.80615-2.0358-1.2248-0.65785-0.41872-1.2946-0.84765-1.9097-1.2865-0.70965-0.51627-1.3886-1.0452-2.0358-1.5861-0.64729-0.54079-1.2629-1.0934-1.8457-1.657-0.58281-0.56349-1.1325-1.1374-1.6478-1.7206-0.51527-0.58325-0.99613-1.1759-1.4422-1.777-0.28992-0.41471-0.56297-0.83295-0.81928-1.2544-0.25631-0.42141-0.49587-0.846-0.71817-1.2735h-0.0067v68.251l0.04512 0.76277c6e-6 0.65074 0.03825 1.3014 0.11447 1.9504 0.07621 0.64899 0.1904 1.2964 0.34259 1.9416 0.15211 0.64514 0.34219 1.2872 0.56944 1.925 0.22726 0.63786 0.4917 1.2716 0.79338 1.9002 0.30175 0.62847 0.64027 1.2513 1.0148 1.867 0.37453 0.61578 0.7851 1.2246 1.2313 1.8257 0.44607 0.60111 0.92732 1.1937 1.4426 1.777 0.51527 0.58325 1.0645 1.1571 1.6473 1.7206 0.58285 0.56356 1.1985 1.1162 1.8457 1.657 0.64729 0.54079 1.3262 1.0698 2.0358 1.5861 0.70961 0.51621 1.449 1.019 2.2172 1.5079 0.76817 0.48894 1.5651 0.96402 2.3893 1.4241 0.82426 0.4601 1.6751 0.90476 2.551 1.3335 0.87594 0.42878 1.777 0.84169 2.7018 1.2378 0.92478 0.3961 1.8723 0.77506 2.841 1.1364 0.96872 0.36133 1.9589 0.70496 2.9683 1.0303 1.0096 0.3254 2.0375 0.63237 3.0824 0.92008 1.045 0.28768 2.1069 0.55613 3.1839 0.80519 1.0769 0.24895 2.1681 0.4782 3.2713 0.6872 1.1032 0.20901 2.2185 0.39776 3.3444 0.56612 1.1259 0.16848 2.2614 0.31602 3.4041 0.44296 1.1427 0.12694 2.2927 0.23326 3.4484 0.31825 1.1557 0.0849 2.3159 0.14893 3.4785 0.19147 1.1625 0.0425 2.3274 0.0635 3.4931 0.0636 1.1657-1e-5 2.3309-0.0211 3.4935-0.0636s2.3227-0.10651 3.4784-0.19147c1.1557-0.0851 2.3057-0.19131 3.4484-0.31825 1.1427-0.12694 2.2781-0.27448 3.4041-0.44296 1.1259-0.16836 2.2412-0.35711 3.3444-0.56612 1.1032-0.209 2.1943-0.43825 3.2713-0.6872 1.077-0.24906 2.139-0.51751 3.1839-0.80519 1.045-0.28771 2.0729-0.59468 3.0824-0.92008 1.0095-0.32535 1.9993-0.66899 2.968-1.0303 0.96863-0.36131 1.9162-0.74028 2.841-1.1364 0.92487-0.39612 1.8258-0.80903 2.7018-1.2378 0.87601-0.42879 1.7271-0.87344 2.5514-1.3335 0.82422-0.46007 1.6212-0.93515 2.3893-1.4241 0.76816-0.48893 1.5076-0.99172 2.2172-1.5079 0.70964-0.51627 1.3886-1.0452 2.0358-1.5861 0.64729-0.54077 1.2629-1.0934 1.8457-1.657 0.5828-0.56349 1.132-1.1374 1.6473-1.7206 0.51527-0.58324 0.99658-1.1759 1.4426-1.777 0.44611-0.60111 0.85667-1.2099 1.2312-1.8257 0.37454-0.61578 0.71306-1.2386 1.0148-1.867 0.30167-0.62854 0.56612-1.2623 0.79338-1.9002 0.22726-0.63787 0.41733-1.2799 0.56944-1.925 0.15218-0.64517 0.26637-1.2926 0.34259-1.9416 0.24048-2.0472 0.15492-2.3919 0.18054-2.8392z" 
            fill="white"
            opacity="1" 
            stroke="#666" 
            stroke-width="2"
        />
        <path d="m124.94 42.979c-0.37597-0.0144-1.1672 0.0104-1.7953 6e-3l-11.238 0.0774v68.818l11.242 0.0967c0.62686 0.0149 1.1395-9e-3 1.6875 0.0155 1.2335 5e-5 2.3964-0.0792 3.6193-0.27604 1.2228-0.19679 2.4339-0.49125 3.6252-0.8815 1.1912-0.39017 2.3602-0.87527 3.4995-1.4521 1.1395-0.57703 2.2469-1.2446 3.3151-1.9986 1.0682-0.75374 2.0949-1.5922 3.0734-2.5099 0.97842-0.91782 1.9067-1.913 2.7787-2.979 0.87217-1.0661 1.6863-2.2009 2.4372-3.3971 0.7509-1.196 1.4369-2.4508 2.0537-3.7564 0.61657-1.3057 1.1626-2.6594 1.6344-4.0523 0.47199-1.393 0.86886-2.8222 1.1881-4.2786 0.3193-1.4562 0.56027-2.9365 0.72135-4.4312 0.16097-1.4948 0.2417-3.0008 0.24168-4.5085-2e-5 -0.53184-0.01-1.0636-0.0302-1.5949-0.0202-0.5314-0.0504-1.0622-0.0907-1.5918-0.0401-0.52972-0.0903-1.0582-0.15043-1.5851-0.0599-0.52684-0.12983-1.0519-0.20962-1.5748-0.0799-0.52294-0.16979-1.0436-0.26942-1.5614-0.0999-0.51783-0.20936-1.0328-0.32862-1.5444-0.11907-0.5115-0.24772-1.0196-0.38595-1.5238-0.13829-0.50447-0.2861-1.005-0.4433-1.5011-0.15715-0.49588-0.32366-0.98729-0.49939-1.4738-0.17584-0.48662-0.36084-0.96823-0.55487-1.4444-0.19392-0.4763-0.39682-0.94708-0.60853-1.4119-0.21182-0.46461-0.43239-0.92317-0.66154-1.3753-0.22911-0.45238-0.46676-0.89823-0.71272-1.3372-0.24582-0.43875-0.49991-0.87051-0.76204-1.2949-0.26232-0.42462-0.53264-0.84177-0.81074-1.2511-0.27804-0.40923-0.56378-0.81057-0.85699-1.2037-0.29315-0.39299-0.59368-0.77765-0.90137-1.1537-0.30765-0.37621-0.62238-0.74368-0.94391-1.1021-0.32156-0.35838-0.64986-0.70764-0.98461-1.0475-0.33486-0.33985-0.67611-0.6702-1.0234-0.99077-0.34735-0.32061-0.70072-0.63137-1.0598-0.93201-0.35884-0.30047-0.72331-0.59077-1.0931-0.87067-0.37011-0.28016-0.74549-0.54984-1.1258-0.8088-0.38019-0.25878-0.76522-0.50681-1.1548-0.74386-0.38945-0.23704-0.78331-0.46306-1.1813-0.67786-0.39807-0.21495-0.80017-0.41863-1.2059-0.61086-0.40591-0.19214-0.8154-0.37278-1.2281-0.54179-0.41252-0.1691-0.82819-0.32654-1.2466-0.47219-0.41851-0.14555-0.83972-0.27927-1.2633-0.40105-0.42369-0.12181-0.84963-0.23164-1.2775-0.32939-0.42785-0.0977-0.85748-0.18329-1.2886-0.25672-0.43098-0.0735-0.86328-0.1349-1.2966-0.18403-0.43329-0.049-0.63615-0.0858-1.3021-0.11031zm0.0694 12.648c0.25167 2e-3 0.50328 0.0115 0.75464 0.0278 0.33205 0.0246 0.66349 0.0616 0.99386 0.11083 0.33055 0.0493 0.65993 0.11084 0.98768 0.18455 0.32762 0.0735 0.65351 0.15909 0.97721 0.25671 0.32365 0.0979 0.64501 0.20772 0.96365 0.3294 0.31864 0.12144 0.63444 0.25467 0.947 0.3995 0.3126 0.14506 0.62182 0.30166 0.92727 0.46961 0.30551 0.16784 0.60713 0.34697 0.90445 0.53715 0.29718 0.19016 0.58995 0.39128 0.87796 0.60313 0.28821 0.21196 0.57153 0.43458 0.84958 0.66756 0.278 0.23281 0.55063 0.47588 0.81753 0.7289 0.26673 0.25317 0.52765 0.51619 0.78238 0.7887 0.25484 0.27236 0.50341 0.55411 0.74539 0.84489 0.2419 0.29089 0.47711 0.59069 0.70532 0.89901 0.22831 0.30825 0.44954 0.6249 0.66338 0.94954 0.21388 0.32461 0.42031 0.65706 0.61902 0.99696 0.19859 0.33995 0.38939 0.68721 0.57213 1.0413 0.18289 0.35412 0.35765 0.71495 0.52406 1.082 0.16632 0.36711 0.32423 0.74032 0.4735 1.1191 0.1493 0.37858 0.28993 0.76261 0.42171 1.1516 0.13187 0.3892 0.25481 0.78321 0.36869 1.1815 0.11382 0.39829 0.21842 0.80072 0.31381 1.2068 0.0952 0.40603 0.18118 0.81551 0.25772 1.2279 0.0768 0.41238 0.1443 0.82752 0.20222 1.2449 0.0576 0.41739 0.10583 0.83685 0.14427 1.2578 0.0386 0.42085 0.0676 0.84304 0.087 1.266 0.0193 0.42311 0.029 0.84686 0.029 1.2707 1.5e-4 1.2722-0.0869 2.5421-0.26018 3.795-0.17337 1.2527-0.43228 2.4837-0.77375 3.6791-0.3416 1.1956-0.76451 2.3509-1.2639 3.4528-0.49935 1.1017-1.0733 2.1458-1.7152 3.1203-0.64181 0.9745-1.3492 1.8757-2.1141 2.6934-0.76502 0.81765-1.5846 1.5487-2.4495 2.1846-0.86473 0.63607-1.7714 1.1748-2.7097 1.6099-0.93825 0.43515-1.9046 0.76513-2.8879 0.98613-0.90419 0.19456-1.8192 0.29644-2.7362 0.30466z" 
            fill="white"  
            opacity="1" 
            stroke="#666" 
            strokeWidth="2"
        />
        
</svg>